<svg width="292" height="161" viewBox="0 0 292 161" fill="none" xmlns="http://www.w3.org/2000/svg">
<rect width="292" height="161" rx="20" fill="url(#paint0_linear)"/>
<path d="M19 80C19 68.9543 27.9543 60 39 60H78.72C89.7657 60 98.72 68.9543 98.72 80V119.72C98.72 130.766 89.7657 139.72 78.72 139.72H39C27.9543 139.72 19 130.766 19 119.72V80Z" fill="#FFCB05"/>
<path d="M96.2249 99.6304C96.2249 108.14 79.4966 115.038 58.8644 115.038C38.2278 115.038 21.4995 108.14 21.4995 99.6304C21.4995 91.1205 38.2278 84.2269 58.8644 84.2269C79.4966 84.2269 96.2249 91.1205 96.2249 99.6304Z" fill="#00678F"/>
<path d="M43.3708 91.8271C44.2498 91.8271 44.9625 92.5397 44.9625 93.4188C44.9625 95.1322 47.2983 95.6358 48.0044 94.0747L48.5252 92.9231C48.827 92.2558 49.4914 91.8271 50.2238 91.8271H51.1551C53.3075 91.8271 54.8865 93.8504 54.3635 95.9383L51.911 105.729C51.6892 106.614 50.8936 107.235 49.981 107.235H48.7383C48.0926 107.235 47.6151 106.634 47.7615 106.005C48.0325 104.84 46.4045 104.264 45.8824 105.34L45.279 106.583C45.0854 106.982 44.6809 107.235 44.2374 107.235H42.7875C42.179 107.235 41.6857 106.742 41.6857 106.133C41.6857 104.836 39.8341 104.605 39.5158 105.863L39.391 106.356C39.2602 106.873 38.7949 107.235 38.2615 107.235H37.565C36.2242 107.235 35.2407 105.974 35.5669 104.674L38.1305 94.4515C38.5174 92.9089 39.904 91.8271 41.4944 91.8271H43.3708Z" fill="white"/>
<path d="M60.2608 105.283C60.9679 105.283 61.4818 105.955 61.2964 106.637C61.1695 107.105 60.7451 107.429 60.2608 107.429H58.0438C57.3375 107.429 56.8239 106.759 57.0077 106.077C57.1339 105.608 57.5587 105.283 58.0438 105.283H60.2608Z" fill="#ED1D24"/>
<path d="M73.5077 91.8271C74.3155 91.8271 75.0172 92.3825 75.2027 93.1687C75.6203 94.9379 78.1418 94.9139 78.597 93.154C78.7975 92.3786 79.4996 91.8271 80.3006 91.8271H80.4671C81.7505 91.8271 82.692 93.0335 82.3801 94.2784L79.6513 105.172C79.3475 106.384 78.2576 107.235 77.0074 107.235H76.3107C75.4729 107.235 74.7421 106.666 74.5364 105.854C74.07 104.013 71.454 104.013 70.9876 105.854C70.7819 106.666 70.051 107.235 69.2132 107.235H69.1059C67.8251 107.235 66.8854 106.031 67.1967 104.788L69.9076 93.9666C70.2226 92.7091 71.3528 91.8271 72.6492 91.8271H73.5077Z" fill="white"/>
<path d="M57.6949 95.7309C58.7277 95.7309 59.4827 96.7057 59.2245 97.7057L58.2421 101.51C57.8908 102.871 58.9179 104.197 60.3229 104.197C61.3024 104.197 62.158 103.534 62.4034 102.586L63.6723 97.6818C63.9695 96.5332 65.0057 95.7309 66.1921 95.7309H66.702C67.6 95.7309 68.3821 95.1183 68.5972 94.2464C68.9006 93.0159 67.9693 91.8271 66.702 91.8271H58.1705C57.2733 91.8271 56.4916 92.4387 56.2758 93.3096L56.1615 93.7713C55.9147 94.7675 56.6685 95.7309 57.6949 95.7309Z" fill="#FFCB05"/>
<path d="M114.548 109.912V107.224H118.552L119.504 102.856H122.444L121.492 107.224H125.16L126.112 102.856H129.024L128.072 107.224H131.628V109.912H127.512L126.672 113.832H130.228V116.492H126.084L125.132 121H122.22L123.172 116.492H119.504L118.552 121H115.612L116.564 116.492H113.148V113.832H117.152L117.992 109.912H114.548ZM120.932 109.912L120.092 113.832H123.76L124.6 109.912H120.932ZM141.58 121H137.744V108.848H133.376V106.244C134.682 106.225 135.774 105.899 136.652 105.264C137.529 104.611 138.061 103.799 138.248 102.828H141.58V121ZM148.836 109.856L145.168 109.744C145.075 109.315 145.028 108.895 145.028 108.484C145.028 106.804 145.626 105.376 146.82 104.2C148.015 103.005 149.63 102.408 151.664 102.408C153.643 102.408 155.23 102.977 156.424 104.116C157.619 105.236 158.216 106.617 158.216 108.26C158.216 110.575 157.04 112.451 154.688 113.888L151.188 116.016C150.367 116.539 149.844 117.089 149.62 117.668H158.328V121H144.888C144.907 119.301 145.234 117.817 145.868 116.548C146.522 115.279 147.623 114.177 149.172 113.244L152.168 111.452C153.606 110.593 154.324 109.548 154.324 108.316C154.324 107.625 154.082 107.037 153.596 106.552C153.13 106.067 152.458 105.824 151.58 105.824C150.647 105.824 149.928 106.104 149.424 106.664C148.939 107.224 148.696 107.952 148.696 108.848C148.696 109.184 148.743 109.52 148.836 109.856ZM161.547 120.44C161.118 119.992 160.903 119.432 160.903 118.76C160.903 118.088 161.146 117.528 161.631 117.08C162.117 116.632 162.723 116.408 163.451 116.408C164.291 116.408 164.963 116.716 165.467 117.332C165.971 117.929 166.223 118.695 166.223 119.628C166.223 121.495 165.71 122.941 164.683 123.968C163.675 124.995 162.546 125.583 161.295 125.732V123.94C161.967 123.791 162.574 123.427 163.115 122.848C163.657 122.288 163.937 121.644 163.955 120.916C163.806 121.028 163.563 121.084 163.227 121.084C162.537 121.084 161.977 120.869 161.547 120.44ZM173.363 107.308C172.71 108.335 172.383 109.875 172.383 111.928C172.383 113.981 172.71 115.521 173.363 116.548C173.979 117.537 174.894 118.032 176.107 118.032C177.302 118.032 178.207 117.537 178.823 116.548C179.495 115.54 179.831 114 179.831 111.928C179.831 109.856 179.495 108.316 178.823 107.308C178.207 106.319 177.302 105.824 176.107 105.824C174.894 105.824 173.979 106.319 173.363 107.308ZM170.115 118.396C169.051 116.772 168.519 114.616 168.519 111.928C168.519 109.24 169.051 107.084 170.115 105.46C171.478 103.425 173.475 102.408 176.107 102.408C178.739 102.408 180.727 103.425 182.071 105.46C183.154 107.103 183.695 109.259 183.695 111.928C183.695 114.597 183.154 116.753 182.071 118.396C180.727 120.431 178.739 121.448 176.107 121.448C173.475 121.448 171.478 120.431 170.115 118.396ZM190.781 107.308C190.128 108.335 189.801 109.875 189.801 111.928C189.801 113.981 190.128 115.521 190.781 116.548C191.397 117.537 192.312 118.032 193.525 118.032C194.72 118.032 195.625 117.537 196.241 116.548C196.913 115.54 197.249 114 197.249 111.928C197.249 109.856 196.913 108.316 196.241 107.308C195.625 106.319 194.72 105.824 193.525 105.824C192.312 105.824 191.397 106.319 190.781 107.308ZM187.533 118.396C186.469 116.772 185.937 114.616 185.937 111.928C185.937 109.24 186.469 107.084 187.533 105.46C188.896 103.425 190.893 102.408 193.525 102.408C196.157 102.408 198.145 103.425 199.489 105.46C200.572 107.103 201.113 109.259 201.113 111.928C201.113 114.597 200.572 116.753 199.489 118.396C198.145 120.431 196.157 121.448 193.525 121.448C190.893 121.448 188.896 120.431 187.533 118.396ZM208.199 107.308C207.546 108.335 207.219 109.875 207.219 111.928C207.219 113.981 207.546 115.521 208.199 116.548C208.815 117.537 209.73 118.032 210.943 118.032C212.138 118.032 213.043 117.537 213.659 116.548C214.331 115.54 214.667 114 214.667 111.928C214.667 109.856 214.331 108.316 213.659 107.308C213.043 106.319 212.138 105.824 210.943 105.824C209.73 105.824 208.815 106.319 208.199 107.308ZM204.951 118.396C203.887 116.772 203.355 114.616 203.355 111.928C203.355 109.24 203.887 107.084 204.951 105.46C206.314 103.425 208.311 102.408 210.943 102.408C213.575 102.408 215.563 103.425 216.907 105.46C217.99 107.103 218.531 109.259 218.531 111.928C218.531 114.597 217.99 116.753 216.907 118.396C215.563 120.431 213.575 121.448 210.943 121.448C208.311 121.448 206.314 120.431 204.951 118.396Z" fill="white"/>
<path d="M28.704 34H27.831V29.032L25.653 34H24.843L22.683 29.032V34H21.81V27.619H23.007L25.257 32.812L27.525 27.619H28.704V34ZM38.3456 34L37.6526 32.218H34.8266L34.1516 34H33.2066L35.7446 27.619H36.7616L39.2996 34H38.3456ZM36.2306 28.537L35.1416 31.399H37.3376L36.2306 28.537ZM47.6411 28.438H45.5081V34H44.6261V28.438H42.4931V27.619H47.6411V28.438ZM56.7431 28.438H54.6101V34H53.7281V28.438H51.5951V27.619H56.7431V28.438ZM66.2633 34H65.3813V31.165H62.1233V34H61.2413V27.619H62.1233V30.346H65.3813V27.619H66.2633V34ZM75.3648 34H71.4858V27.619H75.3648V28.438H72.3678V30.4H75.0858V31.228H72.3678V33.181H75.3648V34ZM86.1203 32.668L87.4973 27.619H88.4063L86.5883 34H85.6793L84.0143 28.825L82.3673 34H81.4853L79.6403 27.619H80.5493L81.9533 32.614L83.5553 27.619H84.4823L86.1203 32.668ZM102.652 33.523C102.226 33.931 101.677 34.135 101.005 34.135C100.333 34.135 99.7814 33.931 99.3494 33.523C98.9234 33.115 98.7104 32.548 98.7104 31.822V27.619H99.5834V31.795C99.5834 32.281 99.7064 32.656 99.9524 32.92C100.204 33.184 100.555 33.316 101.005 33.316C101.455 33.316 101.803 33.184 102.049 32.92C102.295 32.656 102.418 32.281 102.418 31.795V27.619H103.3V31.822C103.3 32.548 103.084 33.115 102.652 33.523ZM111.193 34.135C110.323 34.135 109.576 33.835 108.952 33.235C108.334 32.635 108.025 31.825 108.025 30.805C108.025 30.121 108.181 29.521 108.493 29.005C108.805 28.489 109.198 28.108 109.672 27.862C110.146 27.61 110.653 27.484 111.193 27.484C111.913 27.484 112.519 27.667 113.011 28.033C113.509 28.393 113.839 28.885 114.001 29.509L113.182 29.797C113.062 29.317 112.831 28.948 112.489 28.69C112.147 28.426 111.715 28.294 111.193 28.294C110.569 28.294 110.035 28.516 109.591 28.96C109.147 29.398 108.925 30.013 108.925 30.805C108.925 31.597 109.147 32.215 109.591 32.659C110.035 33.103 110.569 33.325 111.193 33.325C111.715 33.325 112.15 33.187 112.498 32.911C112.846 32.629 113.089 32.257 113.227 31.795L114.01 32.083C113.836 32.701 113.5 33.199 113.002 33.577C112.51 33.949 111.907 34.135 111.193 34.135ZM123.802 34H122.92V31.165H119.662V34H118.78V27.619H119.662V30.346H122.92V27.619H123.802V34ZM132.903 34H129.024V27.619H132.903V28.438H129.906V30.4H132.624V31.228H129.906V33.181H132.903V34Z" fill="#E3D4D4"/>
<path d="M117.484 85L115.54 81.52H114.268V85H113.08V76.492H116.284C117.068 76.492 117.696 76.736 118.168 77.224C118.648 77.704 118.888 78.304 118.888 79.024C118.888 79.64 118.704 80.168 118.336 80.608C117.968 81.04 117.464 81.316 116.824 81.436L118.852 85H117.484ZM114.268 80.464H116.068C116.548 80.464 116.936 80.336 117.232 80.08C117.528 79.816 117.676 79.464 117.676 79.024C117.676 78.576 117.528 78.22 117.232 77.956C116.936 77.684 116.548 77.548 116.068 77.548H114.268V80.464ZM120.887 81.52H124.043C124.027 81.088 123.883 80.736 123.611 80.464C123.339 80.184 122.955 80.044 122.459 80.044C122.011 80.044 121.643 80.192 121.355 80.488C121.067 80.776 120.911 81.12 120.887 81.52ZM124.211 83.02L125.183 83.356C125.015 83.892 124.703 84.332 124.247 84.676C123.791 85.012 123.239 85.18 122.591 85.18C121.783 85.18 121.095 84.904 120.527 84.352C119.967 83.792 119.687 83.04 119.687 82.096C119.687 81.216 119.959 80.488 120.503 79.912C121.047 79.336 121.695 79.048 122.447 79.048C123.319 79.048 123.999 79.324 124.487 79.876C124.975 80.42 125.219 81.152 125.219 82.072C125.219 82.216 125.211 82.336 125.195 82.432H120.851C120.859 82.944 121.027 83.364 121.355 83.692C121.691 84.02 122.103 84.184 122.591 84.184C123.415 84.184 123.955 83.796 124.211 83.02ZM129.083 80.092C128.595 80.092 128.179 80.268 127.835 80.62C127.499 80.972 127.331 81.468 127.331 82.108C127.331 82.74 127.499 83.236 127.835 83.596C128.179 83.956 128.599 84.136 129.095 84.136C129.575 84.136 129.939 84.016 130.187 83.776C130.443 83.536 130.615 83.26 130.703 82.948L131.699 83.38C131.539 83.86 131.235 84.28 130.787 84.64C130.347 85 129.783 85.18 129.095 85.18C128.255 85.18 127.559 84.888 127.007 84.304C126.455 83.72 126.179 82.988 126.179 82.108C126.179 81.212 126.455 80.48 127.007 79.912C127.559 79.336 128.251 79.048 129.083 79.048C129.787 79.048 130.355 79.228 130.787 79.588C131.227 79.948 131.515 80.38 131.651 80.884L130.631 81.316C130.543 80.98 130.375 80.692 130.127 80.452C129.879 80.212 129.531 80.092 129.083 80.092ZM134.151 81.604V85H133.023V76.312H134.151V79.9C134.535 79.34 135.119 79.06 135.903 79.06C136.567 79.06 137.075 79.272 137.427 79.696C137.787 80.12 137.967 80.668 137.967 81.34V85H136.839V81.532C136.839 80.564 136.391 80.08 135.495 80.08C135.079 80.08 134.755 80.224 134.523 80.512C134.291 80.792 134.167 81.156 134.151 81.604ZM139.401 83.452C139.401 82.956 139.561 82.56 139.881 82.264C140.201 81.96 140.625 81.772 141.153 81.7L142.713 81.472C143.009 81.432 143.157 81.288 143.157 81.04C143.157 80.736 143.053 80.488 142.845 80.296C142.637 80.104 142.325 80.008 141.909 80.008C141.525 80.008 141.221 80.116 140.997 80.332C140.773 80.54 140.641 80.82 140.601 81.172L139.521 80.92C139.577 80.368 139.829 79.92 140.277 79.576C140.725 79.224 141.261 79.048 141.885 79.048C142.701 79.048 143.305 79.248 143.697 79.648C144.089 80.04 144.285 80.544 144.285 81.16V84.052C144.285 84.396 144.309 84.712 144.357 85H143.253C143.213 84.76 143.193 84.5 143.193 84.22C143.033 84.476 142.797 84.7 142.485 84.892C142.181 85.084 141.797 85.18 141.333 85.18C140.765 85.18 140.301 85.012 139.941 84.676C139.581 84.332 139.401 83.924 139.401 83.452ZM141.489 84.232C141.993 84.232 142.397 84.096 142.701 83.824C143.005 83.552 143.157 83.12 143.157 82.528V82.264L141.393 82.528C141.137 82.568 140.933 82.66 140.781 82.804C140.629 82.948 140.553 83.144 140.553 83.392C140.553 83.616 140.637 83.812 140.805 83.98C140.981 84.148 141.209 84.232 141.489 84.232ZM149.246 79.168V80.368C149.078 80.344 148.914 80.332 148.754 80.332C147.698 80.332 147.17 80.924 147.17 82.108V85H146.042V79.228H147.146V80.236C147.498 79.5 148.074 79.132 148.874 79.132C149.002 79.132 149.126 79.144 149.246 79.168ZM149.97 85.312L151.062 85.06C151.102 85.468 151.266 85.804 151.554 86.068C151.842 86.34 152.202 86.476 152.634 86.476C153.81 86.476 154.398 85.852 154.398 84.604V83.776C154.254 84.056 154.026 84.284 153.714 84.46C153.41 84.636 153.05 84.724 152.634 84.724C151.866 84.724 151.23 84.464 150.726 83.944C150.23 83.416 149.982 82.744 149.982 81.928C149.982 81.136 150.23 80.472 150.726 79.936C151.222 79.392 151.858 79.12 152.634 79.12C153.514 79.12 154.106 79.424 154.41 80.032V79.228H155.526V84.568C155.526 84.952 155.474 85.308 155.37 85.636C155.274 85.972 155.118 86.28 154.902 86.56C154.686 86.84 154.382 87.06 153.99 87.22C153.606 87.38 153.154 87.46 152.634 87.46C151.922 87.46 151.318 87.256 150.822 86.848C150.326 86.448 150.042 85.936 149.97 85.312ZM152.802 83.776C153.29 83.776 153.686 83.608 153.99 83.272C154.294 82.928 154.446 82.48 154.446 81.928C154.446 81.376 154.294 80.932 153.99 80.596C153.686 80.252 153.29 80.08 152.802 80.08C152.306 80.08 151.902 80.248 151.59 80.584C151.286 80.92 151.134 81.368 151.134 81.928C151.134 82.496 151.282 82.948 151.578 83.284C151.882 83.612 152.29 83.776 152.802 83.776ZM158.059 81.52H161.215C161.199 81.088 161.055 80.736 160.783 80.464C160.511 80.184 160.127 80.044 159.631 80.044C159.183 80.044 158.815 80.192 158.527 80.488C158.239 80.776 158.083 81.12 158.059 81.52ZM161.383 83.02L162.355 83.356C162.187 83.892 161.875 84.332 161.419 84.676C160.963 85.012 160.411 85.18 159.763 85.18C158.955 85.18 158.267 84.904 157.699 84.352C157.139 83.792 156.859 83.04 156.859 82.096C156.859 81.216 157.131 80.488 157.675 79.912C158.219 79.336 158.867 79.048 159.619 79.048C160.491 79.048 161.171 79.324 161.659 79.876C162.147 80.42 162.391 81.152 162.391 82.072C162.391 82.216 162.383 82.336 162.367 82.432H158.023C158.031 82.944 158.199 83.364 158.527 83.692C158.863 84.02 159.275 84.184 159.763 84.184C160.587 84.184 161.127 83.796 161.383 83.02ZM170.635 85.18C169.475 85.18 168.479 84.78 167.647 83.98C166.823 83.18 166.411 82.1 166.411 80.74C166.411 79.828 166.619 79.028 167.035 78.34C167.451 77.652 167.975 77.144 168.607 76.816C169.239 76.48 169.915 76.312 170.635 76.312C171.595 76.312 172.403 76.556 173.059 77.044C173.723 77.524 174.163 78.18 174.379 79.012L173.287 79.396C173.127 78.756 172.819 78.264 172.363 77.92C171.907 77.568 171.331 77.392 170.635 77.392C169.803 77.392 169.091 77.688 168.499 78.28C167.907 78.864 167.611 79.684 167.611 80.74C167.611 81.796 167.907 82.62 168.499 83.212C169.091 83.804 169.803 84.1 170.635 84.1C171.331 84.1 171.911 83.916 172.375 83.548C172.839 83.172 173.163 82.676 173.347 82.06L174.391 82.444C174.159 83.268 173.711 83.932 173.047 84.436C172.391 84.932 171.587 85.18 170.635 85.18ZM175.237 83.452C175.237 82.956 175.397 82.56 175.717 82.264C176.037 81.96 176.461 81.772 176.989 81.7L178.549 81.472C178.845 81.432 178.993 81.288 178.993 81.04C178.993 80.736 178.889 80.488 178.681 80.296C178.473 80.104 178.161 80.008 177.745 80.008C177.361 80.008 177.057 80.116 176.833 80.332C176.609 80.54 176.477 80.82 176.437 81.172L175.357 80.92C175.413 80.368 175.665 79.92 176.113 79.576C176.561 79.224 177.097 79.048 177.721 79.048C178.537 79.048 179.141 79.248 179.533 79.648C179.925 80.04 180.121 80.544 180.121 81.16V84.052C180.121 84.396 180.145 84.712 180.193 85H179.089C179.049 84.76 179.029 84.5 179.029 84.22C178.869 84.476 178.633 84.7 178.321 84.892C178.017 85.084 177.633 85.18 177.169 85.18C176.601 85.18 176.137 85.012 175.777 84.676C175.417 84.332 175.237 83.924 175.237 83.452ZM177.325 84.232C177.829 84.232 178.233 84.096 178.537 83.824C178.841 83.552 178.993 83.12 178.993 82.528V82.264L177.229 82.528C176.973 82.568 176.769 82.66 176.617 82.804C176.465 82.948 176.389 83.144 176.389 83.392C176.389 83.616 176.473 83.812 176.641 83.98C176.817 84.148 177.045 84.232 177.325 84.232ZM185.082 79.168V80.368C184.914 80.344 184.75 80.332 184.59 80.332C183.534 80.332 183.006 80.924 183.006 82.108V85H181.878V79.228H182.982V80.236C183.334 79.5 183.91 79.132 184.71 79.132C184.838 79.132 184.962 79.144 185.082 79.168ZM186.898 82.096C186.898 82.704 187.046 83.2 187.342 83.584C187.646 83.968 188.062 84.16 188.59 84.16C189.094 84.16 189.498 83.964 189.802 83.572C190.106 83.18 190.258 82.68 190.258 82.072C190.258 81.472 190.11 80.988 189.814 80.62C189.518 80.252 189.114 80.068 188.602 80.068C188.09 80.068 187.678 80.256 187.366 80.632C187.054 81.008 186.898 81.496 186.898 82.096ZM190.27 84.22V84.124C190.118 84.42 189.886 84.668 189.574 84.868C189.27 85.06 188.906 85.156 188.482 85.156C187.658 85.156 186.994 84.868 186.49 84.292C185.994 83.708 185.746 82.976 185.746 82.096C185.746 81.256 186.002 80.544 186.514 79.96C187.026 79.368 187.682 79.072 188.482 79.072C188.954 79.072 189.338 79.168 189.634 79.36C189.93 79.544 190.134 79.772 190.246 80.044V76.312H191.362V83.932C191.362 84.324 191.382 84.68 191.422 85H190.33C190.29 84.776 190.27 84.516 190.27 84.22Z" fill="white"/>
<defs>
<linearGradient id="paint0_linear" x1="5" y1="5" x2="284" y2="161" gradientUnits="userSpaceOnUse">
<stop/>
<stop offset="1" stop-color="#666464"/>
</linearGradient>
</defs>
</svg>
