<svg width="292" height="161" viewBox="0 0 292 161" fill="none" xmlns="http://www.w3.org/2000/svg">
<rect width="292" height="161" rx="20" fill="url(#paint0_linear)"/>
<path d="M94.704 33H93.831V28.032L91.653 33H90.843L88.683 28.032V33H87.81V26.619H89.007L91.257 31.812L93.525 26.619H94.704V33ZM104.346 33L103.653 31.218H100.827L100.152 33H99.2066L101.745 26.619H102.762L105.3 33H104.346ZM102.231 27.537L101.142 30.399H103.338L102.231 27.537ZM113.641 27.438H111.508V33H110.626V27.438H108.493V26.619H113.641V27.438ZM122.743 27.438H120.61V33H119.728V27.438H117.595V26.619H122.743V27.438ZM132.263 33H131.381V30.165H128.123V33H127.241V26.619H128.123V29.346H131.381V26.619H132.263V33ZM141.365 33H137.486V26.619H141.365V27.438H138.368V29.4H141.086V30.228H138.368V32.181H141.365V33ZM152.12 31.668L153.497 26.619H154.406L152.588 33H151.679L150.014 27.825L148.367 33H147.485L145.64 26.619H146.549L147.953 31.614L149.555 26.619H150.482L152.12 31.668ZM168.652 32.523C168.226 32.931 167.677 33.135 167.005 33.135C166.333 33.135 165.781 32.931 165.349 32.523C164.923 32.115 164.71 31.548 164.71 30.822V26.619H165.583V30.795C165.583 31.281 165.706 31.656 165.952 31.92C166.204 32.184 166.555 32.316 167.005 32.316C167.455 32.316 167.803 32.184 168.049 31.92C168.295 31.656 168.418 31.281 168.418 30.795V26.619H169.3V30.822C169.3 31.548 169.084 32.115 168.652 32.523ZM177.193 33.135C176.323 33.135 175.576 32.835 174.952 32.235C174.334 31.635 174.025 30.825 174.025 29.805C174.025 29.121 174.181 28.521 174.493 28.005C174.805 27.489 175.198 27.108 175.672 26.862C176.146 26.61 176.653 26.484 177.193 26.484C177.913 26.484 178.519 26.667 179.011 27.033C179.509 27.393 179.839 27.885 180.001 28.509L179.182 28.797C179.062 28.317 178.831 27.948 178.489 27.69C178.147 27.426 177.715 27.294 177.193 27.294C176.569 27.294 176.035 27.516 175.591 27.96C175.147 28.398 174.925 29.013 174.925 29.805C174.925 30.597 175.147 31.215 175.591 31.659C176.035 32.103 176.569 32.325 177.193 32.325C177.715 32.325 178.15 32.187 178.498 31.911C178.846 31.629 179.089 31.257 179.227 30.795L180.01 31.083C179.836 31.701 179.5 32.199 179.002 32.577C178.51 32.949 177.907 33.135 177.193 33.135ZM189.802 33H188.92V30.165H185.662V33H184.78V26.619H185.662V29.346H188.92V26.619H189.802V33ZM198.903 33H195.024V26.619H198.903V27.438H195.906V29.4H198.624V30.228H195.906V32.181H198.903V33Z" fill="#E3D4D4"/>
<g filter="url(#filter0_b)">
<rect x="12" y="82" width="267" height="66" rx="33" fill="white" fill-opacity="0.3"/>
<rect x="12.5" y="82.5" width="266" height="65" rx="32.5" stroke="#E0E0E0"/>
</g>
<path d="M185.2 122.34H183.16V120.2C181.867 120.027 180.853 119.54 180.12 118.74C179.4 117.94 178.987 117.06 178.88 116.1L181.36 115.5C181.427 116.193 181.693 116.773 182.16 117.24C182.627 117.693 183.293 117.92 184.16 117.92C184.8 117.92 185.3 117.787 185.66 117.52C186.033 117.24 186.22 116.873 186.22 116.42C186.22 115.687 185.72 115.213 184.72 115L182.88 114.6C181.787 114.36 180.927 113.913 180.3 113.26C179.687 112.593 179.38 111.787 179.38 110.84C179.38 109.8 179.733 108.913 180.44 108.18C181.16 107.447 182.067 106.993 183.16 106.82V104.68H185.2V106.88C186.253 107.067 187.073 107.48 187.66 108.12C188.247 108.747 188.62 109.453 188.78 110.24L186.32 110.94C186.24 110.473 186.02 110.047 185.66 109.66C185.313 109.273 184.773 109.08 184.04 109.08C183.427 109.08 182.94 109.233 182.58 109.54C182.233 109.847 182.06 110.213 182.06 110.64C182.06 111.333 182.52 111.78 183.44 111.98L185.26 112.4C186.473 112.667 187.387 113.147 188 113.84C188.613 114.52 188.92 115.327 188.92 116.26C188.92 117.22 188.587 118.067 187.92 118.8C187.267 119.533 186.36 119.993 185.2 120.18V122.34ZM194.116 114.24L192.896 112.32L196.296 109.4H190.616V107.02H199.796V109.24L196.436 112.04C197.463 112.08 198.343 112.467 199.076 113.2C199.823 113.92 200.196 114.853 200.196 116C200.196 117.173 199.743 118.187 198.836 119.04C197.929 119.88 196.723 120.3 195.216 120.3C193.763 120.3 192.583 119.9 191.676 119.1C190.769 118.287 190.276 117.307 190.196 116.16L192.856 115.64C192.883 116.307 193.109 116.853 193.536 117.28C193.976 117.707 194.536 117.92 195.216 117.92C195.883 117.92 196.416 117.733 196.816 117.36C197.216 116.987 197.416 116.52 197.416 115.96C197.416 115.36 197.216 114.893 196.816 114.56C196.429 114.213 195.923 114.04 195.296 114.04C194.883 114.04 194.489 114.107 194.116 114.24ZM202.297 119.6C201.991 119.28 201.837 118.88 201.837 118.4C201.837 117.92 202.011 117.52 202.357 117.2C202.704 116.88 203.137 116.72 203.657 116.72C204.257 116.72 204.737 116.94 205.097 117.38C205.457 117.807 205.637 118.353 205.637 119.02C205.637 120.353 205.271 121.387 204.537 122.12C203.817 122.853 203.011 123.273 202.117 123.38V122.1C202.597 121.993 203.031 121.733 203.417 121.32C203.804 120.92 204.004 120.46 204.017 119.94C203.911 120.02 203.737 120.06 203.497 120.06C203.004 120.06 202.604 119.907 202.297 119.6ZM210.737 110.22C210.27 110.953 210.037 112.053 210.037 113.52C210.037 114.987 210.27 116.087 210.737 116.82C211.177 117.527 211.83 117.88 212.697 117.88C213.55 117.88 214.197 117.527 214.637 116.82C215.117 116.1 215.357 115 215.357 113.52C215.357 112.04 215.117 110.94 214.637 110.22C214.197 109.513 213.55 109.16 212.697 109.16C211.83 109.16 211.177 109.513 210.737 110.22ZM208.417 118.14C207.657 116.98 207.277 115.44 207.277 113.52C207.277 111.6 207.657 110.06 208.417 108.9C209.39 107.447 210.817 106.72 212.697 106.72C214.577 106.72 215.997 107.447 216.957 108.9C217.73 110.073 218.117 111.613 218.117 113.52C218.117 115.427 217.73 116.967 216.957 118.14C215.997 119.593 214.577 120.32 212.697 120.32C210.817 120.32 209.39 119.593 208.417 118.14ZM223.178 110.22C222.712 110.953 222.478 112.053 222.478 113.52C222.478 114.987 222.712 116.087 223.178 116.82C223.618 117.527 224.272 117.88 225.138 117.88C225.992 117.88 226.638 117.527 227.078 116.82C227.558 116.1 227.798 115 227.798 113.52C227.798 112.04 227.558 110.94 227.078 110.22C226.638 109.513 225.992 109.16 225.138 109.16C224.272 109.16 223.618 109.513 223.178 110.22ZM220.858 118.14C220.098 116.98 219.718 115.44 219.718 113.52C219.718 111.6 220.098 110.06 220.858 108.9C221.832 107.447 223.258 106.72 225.138 106.72C227.018 106.72 228.438 107.447 229.398 108.9C230.172 110.073 230.558 111.613 230.558 113.52C230.558 115.427 230.172 116.967 229.398 118.14C228.438 119.593 227.018 120.32 225.138 120.32C223.258 120.32 221.832 119.593 220.858 118.14ZM235.62 110.22C235.153 110.953 234.92 112.053 234.92 113.52C234.92 114.987 235.153 116.087 235.62 116.82C236.06 117.527 236.713 117.88 237.58 117.88C238.433 117.88 239.08 117.527 239.52 116.82C240 116.1 240.24 115 240.24 113.52C240.24 112.04 240 110.94 239.52 110.22C239.08 109.513 238.433 109.16 237.58 109.16C236.713 109.16 236.06 109.513 235.62 110.22ZM233.3 118.14C232.54 116.98 232.16 115.44 232.16 113.52C232.16 111.6 232.54 110.06 233.3 108.9C234.273 107.447 235.7 106.72 237.58 106.72C239.46 106.72 240.88 107.447 241.84 108.9C242.613 110.073 243 111.613 243 113.52C243 115.427 242.613 116.967 241.84 118.14C240.88 119.593 239.46 120.32 237.58 120.32C235.7 120.32 234.273 119.593 233.3 118.14Z" fill="white"/>
<path d="M47.82 112.08V110.16H50.68L51.36 107.04H53.46L52.78 110.16H55.4L56.08 107.04H58.16L57.48 110.16H60.02V112.08H57.08L56.48 114.88H59.02V116.78H56.06L55.38 120H53.3L53.98 116.78H51.36L50.68 120H48.58L49.26 116.78H46.82V114.88H49.68L50.28 112.08H47.82ZM52.38 112.08L51.78 114.88H54.4L55 112.08H52.38ZM67.1284 120H64.3884V111.32H61.2684V109.46C62.2018 109.447 62.9818 109.213 63.6084 108.76C64.2351 108.293 64.6151 107.713 64.7484 107.02H67.1284V120ZM72.3116 112.04L69.6916 111.96C69.6249 111.653 69.5916 111.353 69.5916 111.06C69.5916 109.86 70.0182 108.84 70.8716 108C71.7249 107.147 72.8782 106.72 74.3316 106.72C75.7449 106.72 76.8782 107.127 77.7316 107.94C78.5849 108.74 79.0116 109.727 79.0116 110.9C79.0116 112.553 78.1716 113.893 76.4916 114.92L73.9916 116.44C73.4049 116.813 73.0316 117.207 72.8716 117.62H79.0916V120H69.4916C69.5049 118.787 69.7382 117.727 70.1916 116.82C70.6582 115.913 71.4449 115.127 72.5516 114.46L74.6916 113.18C75.7182 112.567 76.2316 111.82 76.2316 110.94C76.2316 110.447 76.0582 110.027 75.7116 109.68C75.3782 109.333 74.8982 109.16 74.2716 109.16C73.6049 109.16 73.0916 109.36 72.7316 109.76C72.3849 110.16 72.2116 110.68 72.2116 111.32C72.2116 111.56 72.2449 111.8 72.3116 112.04ZM81.3909 119.6C81.0843 119.28 80.9309 118.88 80.9309 118.4C80.9309 117.92 81.1043 117.52 81.4509 117.2C81.7976 116.88 82.2309 116.72 82.7509 116.72C83.3509 116.72 83.8309 116.94 84.1909 117.38C84.5509 117.807 84.7309 118.353 84.7309 119.02C84.7309 120.353 84.3643 121.387 83.6309 122.12C82.9109 122.853 82.1043 123.273 81.2109 123.38V122.1C81.6909 121.993 82.1243 121.733 82.5109 121.32C82.8976 120.92 83.0976 120.46 83.1109 119.94C83.0043 120.02 82.8309 120.06 82.5909 120.06C82.0976 120.06 81.6976 119.907 81.3909 119.6ZM89.8308 110.22C89.3641 110.953 89.1308 112.053 89.1308 113.52C89.1308 114.987 89.3641 116.087 89.8308 116.82C90.2708 117.527 90.9241 117.88 91.7908 117.88C92.6441 117.88 93.2908 117.527 93.7308 116.82C94.2108 116.1 94.4508 115 94.4508 113.52C94.4508 112.04 94.2108 110.94 93.7308 110.22C93.2908 109.513 92.6441 109.16 91.7908 109.16C90.9241 109.16 90.2708 109.513 89.8308 110.22ZM87.5108 118.14C86.7508 116.98 86.3708 115.44 86.3708 113.52C86.3708 111.6 86.7508 110.06 87.5108 108.9C88.4841 107.447 89.9108 106.72 91.7908 106.72C93.6708 106.72 95.0908 107.447 96.0508 108.9C96.8241 110.073 97.2108 111.613 97.2108 113.52C97.2108 115.427 96.8241 116.967 96.0508 118.14C95.0908 119.593 93.6708 120.32 91.7908 120.32C89.9108 120.32 88.4841 119.593 87.5108 118.14ZM102.272 110.22C101.806 110.953 101.572 112.053 101.572 113.52C101.572 114.987 101.806 116.087 102.272 116.82C102.712 117.527 103.366 117.88 104.232 117.88C105.086 117.88 105.732 117.527 106.172 116.82C106.652 116.1 106.892 115 106.892 113.52C106.892 112.04 106.652 110.94 106.172 110.22C105.732 109.513 105.086 109.16 104.232 109.16C103.366 109.16 102.712 109.513 102.272 110.22ZM99.9522 118.14C99.1922 116.98 98.8122 115.44 98.8122 113.52C98.8122 111.6 99.1922 110.06 99.9522 108.9C100.926 107.447 102.352 106.72 104.232 106.72C106.112 106.72 107.532 107.447 108.492 108.9C109.266 110.073 109.652 111.613 109.652 113.52C109.652 115.427 109.266 116.967 108.492 118.14C107.532 119.593 106.112 120.32 104.232 120.32C102.352 120.32 100.926 119.593 99.9522 118.14ZM114.714 110.22C114.247 110.953 114.014 112.053 114.014 113.52C114.014 114.987 114.247 116.087 114.714 116.82C115.154 117.527 115.807 117.88 116.674 117.88C117.527 117.88 118.174 117.527 118.614 116.82C119.094 116.1 119.334 115 119.334 113.52C119.334 112.04 119.094 110.94 118.614 110.22C118.174 109.513 117.527 109.16 116.674 109.16C115.807 109.16 115.154 109.513 114.714 110.22ZM112.394 118.14C111.634 116.98 111.254 115.44 111.254 113.52C111.254 111.6 111.634 110.06 112.394 108.9C113.367 107.447 114.794 106.72 116.674 106.72C118.554 106.72 119.974 107.447 120.934 108.9C121.707 110.073 122.094 111.613 122.094 113.52C122.094 115.427 121.707 116.967 120.934 118.14C119.974 119.593 118.554 120.32 116.674 120.32C114.794 120.32 113.367 119.593 112.394 118.14Z" fill="white"/>
<path d="M154 112.444L151.556 110M154 112.444H143H154ZM154 112.444L151.556 114.889L154 112.444Z" stroke="#FAFAFA" stroke-width="2" stroke-linecap="round" stroke-linejoin="round"/>
<path d="M143 119.778L145.444 117.333M143 119.778H154H143ZM143 119.778L145.444 122.222L143 119.778Z" stroke="#FAFAFA" stroke-width="2" stroke-linecap="round" stroke-linejoin="round"/>
<path d="M118.063 66H116.033L111.525 58.958V66H109.593V56.074H112.001L116.131 62.64V56.074H118.063V66ZM127.003 58.44L125.267 58.972C125.202 58.6173 125.025 58.2953 124.735 58.006C124.446 57.7167 124.021 57.572 123.461 57.572C123.004 57.572 122.631 57.698 122.341 57.95C122.052 58.1927 121.907 58.4867 121.907 58.832C121.907 59.4387 122.267 59.812 122.985 59.952L124.371 60.218C125.249 60.386 125.93 60.736 126.415 61.268C126.901 61.8 127.143 62.4253 127.143 63.144C127.143 63.9653 126.817 64.684 126.163 65.3C125.519 65.9067 124.651 66.21 123.559 66.21C122.934 66.21 122.369 66.1167 121.865 65.93C121.361 65.7433 120.955 65.496 120.647 65.188C120.339 64.8707 120.097 64.5393 119.919 64.194C119.751 63.8393 119.649 63.4753 119.611 63.102L121.403 62.626C121.45 63.158 121.655 63.6013 122.019 63.956C122.393 64.3107 122.911 64.488 123.573 64.488C124.077 64.488 124.469 64.376 124.749 64.152C125.039 63.928 125.183 63.634 125.183 63.27C125.183 62.9807 125.076 62.7333 124.861 62.528C124.656 62.3133 124.362 62.1687 123.979 62.094L122.593 61.814C121.791 61.646 121.156 61.3147 120.689 60.82C120.223 60.3253 119.989 59.7093 119.989 58.972C119.989 58.0947 120.325 57.3573 120.997 56.76C121.679 56.1627 122.495 55.864 123.447 55.864C124.017 55.864 124.525 55.9433 124.973 56.102C125.421 56.2607 125.781 56.4753 126.051 56.746C126.322 57.0073 126.532 57.278 126.681 57.558C126.831 57.838 126.938 58.132 127.003 58.44ZM134.991 66H128.775V56.074H134.991V57.894H130.707V60.162H134.585V61.884H130.707V64.18H134.991V66ZM145.898 55.948L140.928 66.126H139.248L144.204 55.948H145.898ZM158.956 66H156.926L152.418 58.958V66H150.486V56.074H152.894L157.024 62.64V56.074H158.956V66ZM163.682 61.828L160.224 56.074H162.492L164.718 60.008L166.944 56.074H169.114L165.614 61.828V66H163.682V61.828ZM176.81 58.44L175.074 58.972C175.009 58.6173 174.831 58.2953 174.542 58.006C174.253 57.7167 173.828 57.572 173.268 57.572C172.811 57.572 172.437 57.698 172.148 57.95C171.859 58.1927 171.714 58.4867 171.714 58.832C171.714 59.4387 172.073 59.812 172.792 59.952L174.178 60.218C175.055 60.386 175.737 60.736 176.222 61.268C176.707 61.8 176.95 62.4253 176.95 63.144C176.95 63.9653 176.623 64.684 175.97 65.3C175.326 65.9067 174.458 66.21 173.366 66.21C172.741 66.21 172.176 66.1167 171.672 65.93C171.168 65.7433 170.762 65.496 170.454 65.188C170.146 64.8707 169.903 64.5393 169.726 64.194C169.558 63.8393 169.455 63.4753 169.418 63.102L171.21 62.626C171.257 63.158 171.462 63.6013 171.826 63.956C172.199 64.3107 172.717 64.488 173.38 64.488C173.884 64.488 174.276 64.376 174.556 64.152C174.845 63.928 174.99 63.634 174.99 63.27C174.99 62.9807 174.883 62.7333 174.668 62.528C174.463 62.3133 174.169 62.1687 173.786 62.094L172.4 61.814C171.597 61.646 170.963 61.3147 170.496 60.82C170.029 60.3253 169.796 59.7093 169.796 58.972C169.796 58.0947 170.132 57.3573 170.804 56.76C171.485 56.1627 172.302 55.864 173.254 55.864C173.823 55.864 174.332 55.9433 174.78 56.102C175.228 56.2607 175.587 56.4753 175.858 56.746C176.129 57.0073 176.339 57.278 176.488 57.558C176.637 57.838 176.745 58.132 176.81 58.44ZM184.797 66H178.581V56.074H184.797V57.894H180.513V60.162H184.391V61.884H180.513V64.18H184.797V66Z" fill="white"/>
<defs>
<filter id="filter0_b" x="-8" y="62" width="307" height="106" filterUnits="userSpaceOnUse" color-interpolation-filters="sRGB">
<feFlood flood-opacity="0" result="BackgroundImageFix"/>
<feGaussianBlur in="BackgroundImage" stdDeviation="10"/>
<feComposite in2="SourceAlpha" operator="in" result="effect1_backgroundBlur"/>
<feBlend mode="normal" in="SourceGraphic" in2="effect1_backgroundBlur" result="shape"/>
</filter>
<linearGradient id="paint0_linear" x1="5" y1="5" x2="284" y2="161" gradientUnits="userSpaceOnUse">
<stop stop-color="#D410D8"/>
<stop offset="1" stop-color="#C2C607"/>
</linearGradient>
</defs>
</svg>
