<svg width="337" height="337" viewBox="0 0 337 337" fill="none" xmlns="http://www.w3.org/2000/svg">
<circle cx="161" cy="161" r="161" fill="#EFBE03"/>
<circle cx="176" cy="176" r="161" fill="#FFCB05" fill-opacity="0.2"/>
<path d="M87.7604 257.21H221.073C222.6 257.208 224.064 256.601 225.144 255.521C226.224 254.441 226.832 252.976 226.833 251.449V244.043H234.24C235.767 244.041 237.231 243.434 238.311 242.354C239.391 241.274 239.998 239.81 240 238.283V177.387C239.998 175.859 239.391 174.395 238.311 173.315C237.231 172.235 235.767 171.628 234.24 171.626H187.198C194.633 166.69 200.857 160.137 205.404 152.457C209.951 144.778 212.703 136.17 213.456 127.276C214.208 118.383 212.941 109.435 209.749 101.101C206.557 92.766 201.523 85.2606 195.022 79.1452C194.847 78.9357 194.647 78.749 194.425 78.5894C188 72.6863 180.35 68.2747 172.022 65.6696C171.878 65.6151 171.73 65.571 171.579 65.5375C161.736 62.5586 151.287 62.1957 141.262 64.4848C131.236 66.7739 121.98 71.6358 114.406 78.5914C114.187 78.7497 113.988 78.9348 113.814 79.1424C107.921 84.6812 103.225 91.3697 100.018 98.7946C96.8102 106.22 95.1592 114.223 95.1667 122.311C95.1741 130.399 96.8398 138.4 100.061 145.819C103.282 153.238 107.99 159.918 113.894 165.446C114.034 165.604 114.188 165.749 114.356 165.877C116.639 167.983 119.085 169.905 121.67 171.626H100.927C99.3998 171.628 97.9356 172.235 96.8557 173.315C95.7757 174.395 95.1683 175.859 95.1667 177.387V184.793H87.7604C86.2332 184.795 84.7689 185.402 83.689 186.482C82.6091 187.562 82.0016 189.026 82 190.553V251.449C82.0016 252.976 82.6091 254.441 83.689 255.521C84.7689 256.601 86.2332 257.208 87.7604 257.21ZM197.514 152.531C195.856 154.883 194.011 157.097 191.995 159.151L186.822 156.164L188.844 142.128L199.989 133.361L205.176 136.356C203.57 142.148 200.978 147.62 197.514 152.531ZM172.097 161.987L157.708 156.231V143.865L171.224 135.756L182.198 142.092L179.988 157.431C179.894 158.082 179.998 158.747 180.285 159.339C180.572 159.93 181.03 160.422 181.6 160.751L186.835 163.774C182.974 166.789 178.71 169.248 174.167 171.081V165.043C174.167 164.385 173.97 163.742 173.601 163.197C173.232 162.653 172.708 162.231 172.097 161.987ZM128.845 157.431L126.635 142.092L137.609 135.755L151.125 143.865V156.231L136.736 161.987C136.125 162.231 135.601 162.653 135.233 163.197C134.864 163.742 134.667 164.385 134.667 165.043V171.091C130.128 169.253 125.87 166.786 122.017 163.764L127.233 160.752C127.803 160.423 128.261 159.931 128.549 159.339C128.836 158.747 128.939 158.082 128.845 157.431ZM141.25 130.263V114.24L154.417 106.34L167.583 114.24V130.263L154.417 138.163L141.25 130.263ZM141.25 167.272L154.417 162.005L167.583 167.272V171.626H141.25V167.272ZM207.083 122.251C207.081 124.696 206.911 127.137 206.573 129.558L201.35 126.543C200.78 126.214 200.125 126.064 199.469 126.111C198.813 126.158 198.186 126.4 197.669 126.807L185.49 136.391L174.167 129.853V114.65L185.49 108.112L197.669 117.696C198.186 118.102 198.813 118.345 199.469 118.392C200.125 118.439 200.78 118.288 201.35 117.959L206.576 114.944C206.914 117.365 207.083 119.807 207.083 122.251ZM191.97 85.3661C198.227 91.7231 202.767 99.5646 205.165 108.156L199.989 111.144L188.844 102.375L186.822 88.3384L191.97 85.3661ZM172.097 82.5159C172.708 82.2716 173.232 81.8499 173.601 81.3051C173.969 80.7604 174.167 80.1175 174.167 79.4596V73.4309C178.698 75.2715 182.951 77.7342 186.803 80.7479L181.6 83.7515C181.03 84.0805 180.572 84.5726 180.285 85.1643C179.998 85.7561 179.894 86.4204 179.988 87.0716L182.198 102.411L171.224 108.747L157.708 100.637V88.2714L172.097 82.5159ZM141.25 71.251C149.887 69.0291 158.946 69.0291 167.583 71.251V77.2307L154.417 82.4974L141.25 77.2307V71.251ZM134.667 73.4317V79.4596C134.667 80.1175 134.864 80.7603 135.233 81.305C135.601 81.8498 136.125 82.2716 136.736 82.5159L151.125 88.2714V100.637L137.609 108.747L126.635 102.41L128.845 87.0712C128.939 86.42 128.836 85.7557 128.548 85.1639C128.261 84.5722 127.803 84.08 127.233 83.7511L122.03 80.7475C125.882 77.734 130.135 75.2715 134.667 73.4309V73.4317ZM116.863 85.3661L122.011 88.3384L119.989 102.375L108.845 111.144L103.669 108.156C106.067 99.5646 110.606 91.7231 116.863 85.3661ZM101.75 122.251C101.751 119.807 101.921 117.365 102.259 114.944L107.485 117.959C108.055 118.288 108.71 118.439 109.366 118.392C110.022 118.345 110.649 118.102 111.166 117.696L123.345 108.112L134.667 114.65V129.853L123.344 136.391L111.165 126.807C110.648 126.4 110.021 126.158 109.364 126.111C108.708 126.064 108.053 126.214 107.483 126.543L102.27 129.553C101.927 127.134 101.753 124.694 101.75 122.251ZM116.857 159.14C110.616 152.77 106.083 144.928 103.679 136.341L108.845 133.361L119.989 142.13L122.011 156.166L116.857 159.14ZM101.75 178.21H233.417V237.46H226.833V190.553C226.832 189.026 226.224 187.562 225.144 186.482C224.064 185.402 222.6 184.795 221.073 184.793H101.75V178.21ZM88.5833 191.376H220.25V250.626H88.5833V191.376Z" fill="#7E41E0"/>
<path d="M210.375 207.835C208.63 207.833 206.956 207.138 205.722 205.904C204.488 204.67 203.794 202.997 203.792 201.251C203.792 200.378 203.445 199.541 202.828 198.924C202.21 198.306 201.373 197.96 200.5 197.96H108.333C107.46 197.96 106.623 198.306 106.006 198.924C105.388 199.541 105.042 200.378 105.042 201.251C105.04 202.997 104.345 204.67 103.111 205.904C101.877 207.138 100.204 207.833 98.4584 207.835C97.5853 207.835 96.7481 208.181 96.1308 208.799C95.5135 209.416 95.1667 210.253 95.1667 211.126V230.876C95.1667 231.749 95.5135 232.587 96.1308 233.204C96.7481 233.821 97.5853 234.168 98.4584 234.168C100.204 234.17 101.877 234.864 103.111 236.098C104.345 237.333 105.04 239.006 105.042 240.751C105.042 241.624 105.388 242.462 106.006 243.079C106.623 243.696 107.46 244.043 108.333 244.043H200.5C201.373 244.043 202.21 243.696 202.828 243.079C203.445 242.462 203.792 241.624 203.792 240.751C203.794 239.006 204.488 237.333 205.722 236.098C206.956 234.864 208.63 234.17 210.375 234.168C211.248 234.168 212.085 233.821 212.703 233.204C213.32 232.587 213.667 231.749 213.667 230.876V211.126C213.667 210.253 213.32 209.416 212.703 208.799C212.085 208.181 211.248 207.835 210.375 207.835ZM111.208 237.46C110.616 235.184 109.427 233.108 107.764 231.445C106.102 229.783 104.025 228.594 101.75 228.001V214.002C104.025 213.409 106.102 212.22 107.764 210.557C109.427 208.895 110.616 206.818 111.208 204.543H138.313C136.117 206.685 134.372 209.244 133.18 212.071C131.989 214.897 131.375 217.934 131.375 221.001C131.375 224.069 131.989 227.105 133.18 229.932C134.372 232.758 136.117 235.318 138.313 237.46H111.208ZM154.417 237.46C151.162 237.46 147.979 236.494 145.273 234.686C142.566 232.877 140.457 230.307 139.211 227.3C137.965 224.292 137.64 220.983 138.275 217.79C138.91 214.598 140.477 211.665 142.779 209.363C145.081 207.062 148.013 205.494 151.206 204.859C154.398 204.224 157.708 204.55 160.715 205.796C163.722 207.041 166.293 209.151 168.101 211.858C169.91 214.564 170.875 217.746 170.875 221.001C170.87 225.365 169.135 229.548 166.049 232.634C162.964 235.719 158.78 237.455 154.417 237.46ZM207.083 228.001C204.808 228.594 202.732 229.783 201.069 231.445C199.407 233.108 198.218 235.184 197.625 237.46H170.521C172.717 235.318 174.462 232.758 175.653 229.932C176.845 227.105 177.458 224.069 177.458 221.001C177.458 217.934 176.845 214.897 175.653 212.071C174.462 209.244 172.717 206.685 170.521 204.543H197.625C198.218 206.818 199.407 208.895 201.069 210.557C202.732 212.22 204.808 213.409 207.083 214.002V228.001Z" fill="#7E41E0"/>
<path d="M117.797 225.116C119.842 225.116 121.5 223.458 121.5 221.413C121.5 219.368 119.842 217.71 117.797 217.71C115.752 217.71 114.094 219.368 114.094 221.413C114.094 223.458 115.752 225.116 117.797 225.116Z" fill="#7E41E0"/>
<path d="M191.424 224.704C193.47 224.704 195.128 223.046 195.128 221.001C195.128 218.956 193.47 217.298 191.424 217.298C189.379 217.298 187.721 218.956 187.721 221.001C187.721 223.046 189.379 224.704 191.424 224.704Z" fill="#7E41E0"/>
</svg>
