<svg width="390" height="334" viewBox="0 0 390 334" fill="none" xmlns="http://www.w3.org/2000/svg">
<rect x="98" y="173" width="292" height="161" rx="20" fill="url(#paint0_linear)"/>
<path d="M192.704 206H191.831V201.032L189.653 206H188.843L186.683 201.032V206H185.81V199.619H187.007L189.257 204.812L191.525 199.619H192.704V206ZM202.346 206L201.653 204.218H198.827L198.152 206H197.207L199.745 199.619H200.762L203.3 206H202.346ZM200.231 200.537L199.142 203.399H201.338L200.231 200.537ZM211.641 200.438H209.508V206H208.626V200.438H206.493V199.619H211.641V200.438ZM220.743 200.438H218.61V206H217.728V200.438H215.595V199.619H220.743V200.438ZM230.263 206H229.381V203.165H226.123V206H225.241V199.619H226.123V202.346H229.381V199.619H230.263V206ZM239.365 206H235.486V199.619H239.365V200.438H236.368V202.4H239.086V203.228H236.368V205.181H239.365V206ZM250.12 204.668L251.497 199.619H252.406L250.588 206H249.679L248.014 200.825L246.367 206H245.485L243.64 199.619H244.549L245.953 204.614L247.555 199.619H248.482L250.12 204.668ZM266.652 205.523C266.226 205.931 265.677 206.135 265.005 206.135C264.333 206.135 263.781 205.931 263.349 205.523C262.923 205.115 262.71 204.548 262.71 203.822V199.619H263.583V203.795C263.583 204.281 263.706 204.656 263.952 204.92C264.204 205.184 264.555 205.316 265.005 205.316C265.455 205.316 265.803 205.184 266.049 204.92C266.295 204.656 266.418 204.281 266.418 203.795V199.619H267.3V203.822C267.3 204.548 267.084 205.115 266.652 205.523ZM275.193 206.135C274.323 206.135 273.576 205.835 272.952 205.235C272.334 204.635 272.025 203.825 272.025 202.805C272.025 202.121 272.181 201.521 272.493 201.005C272.805 200.489 273.198 200.108 273.672 199.862C274.146 199.61 274.653 199.484 275.193 199.484C275.913 199.484 276.519 199.667 277.011 200.033C277.509 200.393 277.839 200.885 278.001 201.509L277.182 201.797C277.062 201.317 276.831 200.948 276.489 200.69C276.147 200.426 275.715 200.294 275.193 200.294C274.569 200.294 274.035 200.516 273.591 200.96C273.147 201.398 272.925 202.013 272.925 202.805C272.925 203.597 273.147 204.215 273.591 204.659C274.035 205.103 274.569 205.325 275.193 205.325C275.715 205.325 276.15 205.187 276.498 204.911C276.846 204.629 277.089 204.257 277.227 203.795L278.01 204.083C277.836 204.701 277.5 205.199 277.002 205.577C276.51 205.949 275.907 206.135 275.193 206.135ZM287.802 206H286.92V203.165H283.662V206H282.78V199.619H283.662V202.346H286.92V199.619H287.802V206ZM296.903 206H293.024V199.619H296.903V200.438H293.906V202.4H296.624V203.228H293.906V205.181H296.903V206Z" fill="#E3D4D4"/>
<g filter="url(#filter0_b)">
<rect x="110" y="255" width="267" height="66" rx="33" fill="white" fill-opacity="0.3"/>
<rect x="110.5" y="255.5" width="266" height="65" rx="32.5" stroke="#E0E0E0"/>
</g>
<path d="M283.2 295.34H281.16V293.2C279.867 293.027 278.853 292.54 278.12 291.74C277.4 290.94 276.987 290.06 276.88 289.1L279.36 288.5C279.427 289.193 279.693 289.773 280.16 290.24C280.627 290.693 281.293 290.92 282.16 290.92C282.8 290.92 283.3 290.787 283.66 290.52C284.033 290.24 284.22 289.873 284.22 289.42C284.22 288.687 283.72 288.213 282.72 288L280.88 287.6C279.787 287.36 278.927 286.913 278.3 286.26C277.687 285.593 277.38 284.787 277.38 283.84C277.38 282.8 277.733 281.913 278.44 281.18C279.16 280.447 280.067 279.993 281.16 279.82V277.68H283.2V279.88C284.253 280.067 285.073 280.48 285.66 281.12C286.247 281.747 286.62 282.453 286.78 283.24L284.32 283.94C284.24 283.473 284.02 283.047 283.66 282.66C283.313 282.273 282.773 282.08 282.04 282.08C281.427 282.08 280.94 282.233 280.58 282.54C280.233 282.847 280.06 283.213 280.06 283.64C280.06 284.333 280.52 284.78 281.44 284.98L283.26 285.4C284.473 285.667 285.387 286.147 286 286.84C286.613 287.52 286.92 288.327 286.92 289.26C286.92 290.22 286.587 291.067 285.92 291.8C285.267 292.533 284.36 292.993 283.2 293.18V295.34ZM292.116 287.24L290.896 285.32L294.296 282.4H288.616V280.02H297.796V282.24L294.436 285.04C295.463 285.08 296.343 285.467 297.076 286.2C297.823 286.92 298.196 287.853 298.196 289C298.196 290.173 297.743 291.187 296.836 292.04C295.929 292.88 294.723 293.3 293.216 293.3C291.763 293.3 290.583 292.9 289.676 292.1C288.769 291.287 288.276 290.307 288.196 289.16L290.856 288.64C290.883 289.307 291.109 289.853 291.536 290.28C291.976 290.707 292.536 290.92 293.216 290.92C293.883 290.92 294.416 290.733 294.816 290.36C295.216 289.987 295.416 289.52 295.416 288.96C295.416 288.36 295.216 287.893 294.816 287.56C294.429 287.213 293.923 287.04 293.296 287.04C292.883 287.04 292.489 287.107 292.116 287.24ZM300.297 292.6C299.991 292.28 299.837 291.88 299.837 291.4C299.837 290.92 300.011 290.52 300.357 290.2C300.704 289.88 301.137 289.72 301.657 289.72C302.257 289.72 302.737 289.94 303.097 290.38C303.457 290.807 303.637 291.353 303.637 292.02C303.637 293.353 303.271 294.387 302.537 295.12C301.817 295.853 301.011 296.273 300.117 296.38V295.1C300.597 294.993 301.031 294.733 301.417 294.32C301.804 293.92 302.004 293.46 302.017 292.94C301.911 293.02 301.737 293.06 301.497 293.06C301.004 293.06 300.604 292.907 300.297 292.6ZM308.737 283.22C308.27 283.953 308.037 285.053 308.037 286.52C308.037 287.987 308.27 289.087 308.737 289.82C309.177 290.527 309.83 290.88 310.697 290.88C311.55 290.88 312.197 290.527 312.637 289.82C313.117 289.1 313.357 288 313.357 286.52C313.357 285.04 313.117 283.94 312.637 283.22C312.197 282.513 311.55 282.16 310.697 282.16C309.83 282.16 309.177 282.513 308.737 283.22ZM306.417 291.14C305.657 289.98 305.277 288.44 305.277 286.52C305.277 284.6 305.657 283.06 306.417 281.9C307.39 280.447 308.817 279.72 310.697 279.72C312.577 279.72 313.997 280.447 314.957 281.9C315.73 283.073 316.117 284.613 316.117 286.52C316.117 288.427 315.73 289.967 314.957 291.14C313.997 292.593 312.577 293.32 310.697 293.32C308.817 293.32 307.39 292.593 306.417 291.14ZM321.178 283.22C320.712 283.953 320.478 285.053 320.478 286.52C320.478 287.987 320.712 289.087 321.178 289.82C321.618 290.527 322.272 290.88 323.138 290.88C323.992 290.88 324.638 290.527 325.078 289.82C325.558 289.1 325.798 288 325.798 286.52C325.798 285.04 325.558 283.94 325.078 283.22C324.638 282.513 323.992 282.16 323.138 282.16C322.272 282.16 321.618 282.513 321.178 283.22ZM318.858 291.14C318.098 289.98 317.718 288.44 317.718 286.52C317.718 284.6 318.098 283.06 318.858 281.9C319.832 280.447 321.258 279.72 323.138 279.72C325.018 279.72 326.438 280.447 327.398 281.9C328.172 283.073 328.558 284.613 328.558 286.52C328.558 288.427 328.172 289.967 327.398 291.14C326.438 292.593 325.018 293.32 323.138 293.32C321.258 293.32 319.832 292.593 318.858 291.14ZM333.62 283.22C333.153 283.953 332.92 285.053 332.92 286.52C332.92 287.987 333.153 289.087 333.62 289.82C334.06 290.527 334.713 290.88 335.58 290.88C336.433 290.88 337.08 290.527 337.52 289.82C338 289.1 338.24 288 338.24 286.52C338.24 285.04 338 283.94 337.52 283.22C337.08 282.513 336.433 282.16 335.58 282.16C334.713 282.16 334.06 282.513 333.62 283.22ZM331.3 291.14C330.54 289.98 330.16 288.44 330.16 286.52C330.16 284.6 330.54 283.06 331.3 281.9C332.273 280.447 333.7 279.72 335.58 279.72C337.46 279.72 338.88 280.447 339.84 281.9C340.613 283.073 341 284.613 341 286.52C341 288.427 340.613 289.967 339.84 291.14C338.88 292.593 337.46 293.32 335.58 293.32C333.7 293.32 332.273 292.593 331.3 291.14Z" fill="white"/>
<path d="M145.82 285.08V283.16H148.68L149.36 280.04H151.46L150.78 283.16H153.4L154.08 280.04H156.16L155.48 283.16H158.02V285.08H155.08L154.48 287.88H157.02V289.78H154.06L153.38 293H151.3L151.98 289.78H149.36L148.68 293H146.58L147.26 289.78H144.82V287.88H147.68L148.28 285.08H145.82ZM150.38 285.08L149.78 287.88H152.4L153 285.08H150.38ZM165.128 293H162.388V284.32H159.268V282.46C160.202 282.447 160.982 282.213 161.608 281.76C162.235 281.293 162.615 280.713 162.748 280.02H165.128V293ZM170.312 285.04L167.692 284.96C167.625 284.653 167.592 284.353 167.592 284.06C167.592 282.86 168.018 281.84 168.872 281C169.725 280.147 170.878 279.72 172.332 279.72C173.745 279.72 174.878 280.127 175.732 280.94C176.585 281.74 177.012 282.727 177.012 283.9C177.012 285.553 176.172 286.893 174.492 287.92L171.992 289.44C171.405 289.813 171.032 290.207 170.872 290.62H177.092V293H167.492C167.505 291.787 167.738 290.727 168.192 289.82C168.658 288.913 169.445 288.127 170.552 287.46L172.692 286.18C173.718 285.567 174.232 284.82 174.232 283.94C174.232 283.447 174.058 283.027 173.712 282.68C173.378 282.333 172.898 282.16 172.272 282.16C171.605 282.16 171.092 282.36 170.732 282.76C170.385 283.16 170.212 283.68 170.212 284.32C170.212 284.56 170.245 284.8 170.312 285.04ZM179.391 292.6C179.084 292.28 178.931 291.88 178.931 291.4C178.931 290.92 179.104 290.52 179.451 290.2C179.798 289.88 180.231 289.72 180.751 289.72C181.351 289.72 181.831 289.94 182.191 290.38C182.551 290.807 182.731 291.353 182.731 292.02C182.731 293.353 182.364 294.387 181.631 295.12C180.911 295.853 180.104 296.273 179.211 296.38V295.1C179.691 294.993 180.124 294.733 180.511 294.32C180.898 293.92 181.098 293.46 181.111 292.94C181.004 293.02 180.831 293.06 180.591 293.06C180.098 293.06 179.698 292.907 179.391 292.6ZM187.831 283.22C187.364 283.953 187.131 285.053 187.131 286.52C187.131 287.987 187.364 289.087 187.831 289.82C188.271 290.527 188.924 290.88 189.791 290.88C190.644 290.88 191.291 290.527 191.731 289.82C192.211 289.1 192.451 288 192.451 286.52C192.451 285.04 192.211 283.94 191.731 283.22C191.291 282.513 190.644 282.16 189.791 282.16C188.924 282.16 188.271 282.513 187.831 283.22ZM185.511 291.14C184.751 289.98 184.371 288.44 184.371 286.52C184.371 284.6 184.751 283.06 185.511 281.9C186.484 280.447 187.911 279.72 189.791 279.72C191.671 279.72 193.091 280.447 194.051 281.9C194.824 283.073 195.211 284.613 195.211 286.52C195.211 288.427 194.824 289.967 194.051 291.14C193.091 292.593 191.671 293.32 189.791 293.32C187.911 293.32 186.484 292.593 185.511 291.14ZM200.272 283.22C199.806 283.953 199.572 285.053 199.572 286.52C199.572 287.987 199.806 289.087 200.272 289.82C200.712 290.527 201.366 290.88 202.232 290.88C203.086 290.88 203.732 290.527 204.172 289.82C204.652 289.1 204.892 288 204.892 286.52C204.892 285.04 204.652 283.94 204.172 283.22C203.732 282.513 203.086 282.16 202.232 282.16C201.366 282.16 200.712 282.513 200.272 283.22ZM197.952 291.14C197.192 289.98 196.812 288.44 196.812 286.52C196.812 284.6 197.192 283.06 197.952 281.9C198.926 280.447 200.352 279.72 202.232 279.72C204.112 279.72 205.532 280.447 206.492 281.9C207.266 283.073 207.652 284.613 207.652 286.52C207.652 288.427 207.266 289.967 206.492 291.14C205.532 292.593 204.112 293.32 202.232 293.32C200.352 293.32 198.926 292.593 197.952 291.14ZM212.714 283.22C212.247 283.953 212.014 285.053 212.014 286.52C212.014 287.987 212.247 289.087 212.714 289.82C213.154 290.527 213.807 290.88 214.674 290.88C215.527 290.88 216.174 290.527 216.614 289.82C217.094 289.1 217.334 288 217.334 286.52C217.334 285.04 217.094 283.94 216.614 283.22C216.174 282.513 215.527 282.16 214.674 282.16C213.807 282.16 213.154 282.513 212.714 283.22ZM210.394 291.14C209.634 289.98 209.254 288.44 209.254 286.52C209.254 284.6 209.634 283.06 210.394 281.9C211.367 280.447 212.794 279.72 214.674 279.72C216.554 279.72 217.974 280.447 218.934 281.9C219.707 283.073 220.094 284.613 220.094 286.52C220.094 288.427 219.707 289.967 218.934 291.14C217.974 292.593 216.554 293.32 214.674 293.32C212.794 293.32 211.367 292.593 210.394 291.14Z" fill="white"/>
<path d="M252 285.444L249.556 283M252 285.444H241H252ZM252 285.444L249.556 287.889L252 285.444Z" stroke="#FAFAFA" stroke-width="2" stroke-linecap="round" stroke-linejoin="round"/>
<path d="M241 292.778L243.444 290.333M241 292.778H252H241ZM241 292.778L243.444 295.222L241 292.778Z" stroke="#FAFAFA" stroke-width="2" stroke-linecap="round" stroke-linejoin="round"/>
<path d="M216.063 239H214.033L209.525 231.958V239H207.593V229.074H210.001L214.131 235.64V229.074H216.063V239ZM225.003 231.44L223.267 231.972C223.202 231.617 223.025 231.295 222.735 231.006C222.446 230.717 222.021 230.572 221.461 230.572C221.004 230.572 220.631 230.698 220.341 230.95C220.052 231.193 219.907 231.487 219.907 231.832C219.907 232.439 220.267 232.812 220.985 232.952L222.371 233.218C223.249 233.386 223.93 233.736 224.415 234.268C224.901 234.8 225.143 235.425 225.143 236.144C225.143 236.965 224.817 237.684 224.163 238.3C223.519 238.907 222.651 239.21 221.559 239.21C220.934 239.21 220.369 239.117 219.865 238.93C219.361 238.743 218.955 238.496 218.647 238.188C218.339 237.871 218.097 237.539 217.919 237.194C217.751 236.839 217.649 236.475 217.611 236.102L219.403 235.626C219.45 236.158 219.655 236.601 220.019 236.956C220.393 237.311 220.911 237.488 221.573 237.488C222.077 237.488 222.469 237.376 222.749 237.152C223.039 236.928 223.183 236.634 223.183 236.27C223.183 235.981 223.076 235.733 222.861 235.528C222.656 235.313 222.362 235.169 221.979 235.094L220.593 234.814C219.791 234.646 219.156 234.315 218.689 233.82C218.223 233.325 217.989 232.709 217.989 231.972C217.989 231.095 218.325 230.357 218.997 229.76C219.679 229.163 220.495 228.864 221.447 228.864C222.017 228.864 222.525 228.943 222.973 229.102C223.421 229.261 223.781 229.475 224.051 229.746C224.322 230.007 224.532 230.278 224.681 230.558C224.831 230.838 224.938 231.132 225.003 231.44ZM232.991 239H226.775V229.074H232.991V230.894H228.707V233.162H232.585V234.884H228.707V237.18H232.991V239ZM243.898 228.948L238.928 239.126H237.248L242.204 228.948H243.898ZM256.956 239H254.926L250.418 231.958V239H248.486V229.074H250.894L255.024 235.64V229.074H256.956V239ZM261.682 234.828L258.224 229.074H260.492L262.718 233.008L264.944 229.074H267.114L263.614 234.828V239H261.682V234.828ZM274.81 231.44L273.074 231.972C273.009 231.617 272.831 231.295 272.542 231.006C272.253 230.717 271.828 230.572 271.268 230.572C270.811 230.572 270.437 230.698 270.148 230.95C269.859 231.193 269.714 231.487 269.714 231.832C269.714 232.439 270.073 232.812 270.792 232.952L272.178 233.218C273.055 233.386 273.737 233.736 274.222 234.268C274.707 234.8 274.95 235.425 274.95 236.144C274.95 236.965 274.623 237.684 273.97 238.3C273.326 238.907 272.458 239.21 271.366 239.21C270.741 239.21 270.176 239.117 269.672 238.93C269.168 238.743 268.762 238.496 268.454 238.188C268.146 237.871 267.903 237.539 267.726 237.194C267.558 236.839 267.455 236.475 267.418 236.102L269.21 235.626C269.257 236.158 269.462 236.601 269.826 236.956C270.199 237.311 270.717 237.488 271.38 237.488C271.884 237.488 272.276 237.376 272.556 237.152C272.845 236.928 272.99 236.634 272.99 236.27C272.99 235.981 272.883 235.733 272.668 235.528C272.463 235.313 272.169 235.169 271.786 235.094L270.4 234.814C269.597 234.646 268.963 234.315 268.496 233.82C268.029 233.325 267.796 232.709 267.796 231.972C267.796 231.095 268.132 230.357 268.804 229.76C269.485 229.163 270.302 228.864 271.254 228.864C271.823 228.864 272.332 228.943 272.78 229.102C273.228 229.261 273.587 229.475 273.858 229.746C274.129 230.007 274.339 230.278 274.488 230.558C274.637 230.838 274.745 231.132 274.81 231.44ZM282.797 239H276.581V229.074H282.797V230.894H278.513V233.162H282.391V234.884H278.513V237.18H282.797V239Z" fill="white"/>
<g filter="url(#filter1_b)">
<rect y="246" width="171" height="161" rx="20" transform="rotate(-90 0 246)" fill="white" fill-opacity="0.3"/>
<rect x="0.5" y="245.5" width="170" height="160" rx="19.5" transform="rotate(-90 0.5 245.5)" stroke="#E0E0E0"/>
</g>
<rect x="26" width="292" height="161" rx="20" fill="url(#paint1_linear)"/>
<path d="M45 80C45 68.9543 53.9543 60 65 60H104.72C115.766 60 124.72 68.9543 124.72 80V119.72C124.72 130.766 115.766 139.72 104.72 139.72H65C53.9543 139.72 45 130.766 45 119.72V80Z" fill="#FFCB05"/>
<path d="M122.225 99.6304C122.225 108.14 105.497 115.038 84.8644 115.038C64.2278 115.038 47.4995 108.14 47.4995 99.6304C47.4995 91.1205 64.2278 84.2269 84.8644 84.2269C105.497 84.2269 122.225 91.1205 122.225 99.6304Z" fill="#00678F"/>
<path d="M69.3708 91.8271C70.2498 91.8271 70.9624 92.5397 70.9624 93.4188V93.4188C70.9624 95.1322 73.2983 95.6358 74.0044 94.0747L74.5252 92.9231C74.827 92.2558 75.4914 91.8271 76.2237 91.8271H77.1551C79.3075 91.8271 80.8865 93.8504 80.3635 95.9383L77.9109 105.729C77.6892 106.614 76.8936 107.235 75.9809 107.235H74.7383C74.0926 107.235 73.6151 106.634 73.7615 106.005V106.005C74.0325 104.84 72.4045 104.264 71.8824 105.34L71.279 106.583C71.0854 106.982 70.6809 107.235 70.2374 107.235H68.7875C68.179 107.235 67.6857 106.742 67.6857 106.133V106.133C67.6857 104.836 65.8341 104.605 65.5158 105.863L65.391 106.356C65.2601 106.873 64.7949 107.235 64.2615 107.235H63.5649C62.2242 107.235 61.2407 105.974 61.5669 104.674L64.1305 94.4515C64.5174 92.9089 65.904 91.8271 67.4944 91.8271H69.3708Z" fill="white"/>
<path d="M86.2608 105.283C86.9679 105.283 87.4817 105.955 87.2964 106.637V106.637C87.1694 107.105 86.7451 107.429 86.2608 107.429H84.0438C83.3375 107.429 82.8238 106.759 83.0076 106.077V106.077C83.1339 105.608 83.5587 105.283 84.0438 105.283H86.2608Z" fill="#ED1D24"/>
<path d="M99.5077 91.8271C100.315 91.8271 101.017 92.3825 101.203 93.1687V93.1687C101.62 94.9379 104.142 94.9139 104.597 93.154V93.154C104.798 92.3786 105.5 91.8271 106.301 91.8271H106.467C107.75 91.8271 108.692 93.0335 108.38 94.2784L105.651 105.172C105.348 106.384 104.258 107.235 103.007 107.235H102.311C101.473 107.235 100.742 106.666 100.536 105.854V105.854C100.07 104.013 97.454 104.013 96.9876 105.854V105.854C96.7819 106.666 96.051 107.235 95.2132 107.235H95.1059C93.8251 107.235 92.8854 106.031 93.1967 104.788L95.9075 93.9666C96.2226 92.7091 97.3527 91.8271 98.6492 91.8271H99.5077Z" fill="white"/>
<path d="M83.6949 95.7309C84.7277 95.7309 85.4827 96.7057 85.2245 97.7057L84.2421 101.51C83.8908 102.871 84.9179 104.197 86.3229 104.197V104.197C87.3024 104.197 88.158 103.534 88.4034 102.586L89.6723 97.6818C89.9695 96.5332 91.0057 95.7309 92.1921 95.7309H92.702C93.6 95.7309 94.3821 95.1183 94.5971 94.2464V94.2464C94.9006 93.0159 93.9693 91.8271 92.702 91.8271H84.1705C83.2733 91.8271 82.4916 92.4387 82.2758 93.3096L82.1615 93.7713C81.9147 94.7675 82.6685 95.7309 83.6949 95.7309V95.7309Z" fill="#FFCB05"/>
<path d="M140.548 109.912V107.224H144.552L145.504 102.856H148.444L147.492 107.224H151.16L152.112 102.856H155.024L154.072 107.224H157.628V109.912H153.512L152.672 113.832H156.228V116.492H152.084L151.132 121H148.22L149.172 116.492H145.504L144.552 121H141.612L142.564 116.492H139.148V113.832H143.152L143.992 109.912H140.548ZM146.932 109.912L146.092 113.832H149.76L150.6 109.912H146.932ZM167.58 121H163.744V108.848H159.376V106.244C160.682 106.225 161.774 105.899 162.652 105.264C163.529 104.611 164.061 103.799 164.248 102.828H167.58V121ZM174.836 109.856L171.168 109.744C171.075 109.315 171.028 108.895 171.028 108.484C171.028 106.804 171.626 105.376 172.82 104.2C174.015 103.005 175.63 102.408 177.664 102.408C179.643 102.408 181.23 102.977 182.424 104.116C183.619 105.236 184.216 106.617 184.216 108.26C184.216 110.575 183.04 112.451 180.688 113.888L177.188 116.016C176.367 116.539 175.844 117.089 175.62 117.668H184.328V121H170.888C170.907 119.301 171.234 117.817 171.868 116.548C172.522 115.279 173.623 114.177 175.172 113.244L178.168 111.452C179.606 110.593 180.324 109.548 180.324 108.316C180.324 107.625 180.082 107.037 179.596 106.552C179.13 106.067 178.458 105.824 177.58 105.824C176.647 105.824 175.928 106.104 175.424 106.664C174.939 107.224 174.696 107.952 174.696 108.848C174.696 109.184 174.743 109.52 174.836 109.856ZM187.547 120.44C187.118 119.992 186.903 119.432 186.903 118.76C186.903 118.088 187.146 117.528 187.631 117.08C188.117 116.632 188.723 116.408 189.451 116.408C190.291 116.408 190.963 116.716 191.467 117.332C191.971 117.929 192.223 118.695 192.223 119.628C192.223 121.495 191.71 122.941 190.683 123.968C189.675 124.995 188.546 125.583 187.295 125.732V123.94C187.967 123.791 188.574 123.427 189.115 122.848C189.657 122.288 189.937 121.644 189.955 120.916C189.806 121.028 189.563 121.084 189.227 121.084C188.537 121.084 187.977 120.869 187.547 120.44ZM199.363 107.308C198.71 108.335 198.383 109.875 198.383 111.928C198.383 113.981 198.71 115.521 199.363 116.548C199.979 117.537 200.894 118.032 202.107 118.032C203.302 118.032 204.207 117.537 204.823 116.548C205.495 115.54 205.831 114 205.831 111.928C205.831 109.856 205.495 108.316 204.823 107.308C204.207 106.319 203.302 105.824 202.107 105.824C200.894 105.824 199.979 106.319 199.363 107.308ZM196.115 118.396C195.051 116.772 194.519 114.616 194.519 111.928C194.519 109.24 195.051 107.084 196.115 105.46C197.478 103.425 199.475 102.408 202.107 102.408C204.739 102.408 206.727 103.425 208.071 105.46C209.154 107.103 209.695 109.259 209.695 111.928C209.695 114.597 209.154 116.753 208.071 118.396C206.727 120.431 204.739 121.448 202.107 121.448C199.475 121.448 197.478 120.431 196.115 118.396ZM216.781 107.308C216.128 108.335 215.801 109.875 215.801 111.928C215.801 113.981 216.128 115.521 216.781 116.548C217.397 117.537 218.312 118.032 219.525 118.032C220.72 118.032 221.625 117.537 222.241 116.548C222.913 115.54 223.249 114 223.249 111.928C223.249 109.856 222.913 108.316 222.241 107.308C221.625 106.319 220.72 105.824 219.525 105.824C218.312 105.824 217.397 106.319 216.781 107.308ZM213.533 118.396C212.469 116.772 211.937 114.616 211.937 111.928C211.937 109.24 212.469 107.084 213.533 105.46C214.896 103.425 216.893 102.408 219.525 102.408C222.157 102.408 224.145 103.425 225.489 105.46C226.572 107.103 227.113 109.259 227.113 111.928C227.113 114.597 226.572 116.753 225.489 118.396C224.145 120.431 222.157 121.448 219.525 121.448C216.893 121.448 214.896 120.431 213.533 118.396ZM234.199 107.308C233.546 108.335 233.219 109.875 233.219 111.928C233.219 113.981 233.546 115.521 234.199 116.548C234.815 117.537 235.73 118.032 236.943 118.032C238.138 118.032 239.043 117.537 239.659 116.548C240.331 115.54 240.667 114 240.667 111.928C240.667 109.856 240.331 108.316 239.659 107.308C239.043 106.319 238.138 105.824 236.943 105.824C235.73 105.824 234.815 106.319 234.199 107.308ZM230.951 118.396C229.887 116.772 229.355 114.616 229.355 111.928C229.355 109.24 229.887 107.084 230.951 105.46C232.314 103.425 234.311 102.408 236.943 102.408C239.575 102.408 241.563 103.425 242.907 105.46C243.99 107.103 244.531 109.259 244.531 111.928C244.531 114.597 243.99 116.753 242.907 118.396C241.563 120.431 239.575 121.448 236.943 121.448C234.311 121.448 232.314 120.431 230.951 118.396Z" fill="white"/>
<path d="M54.704 34H53.831V29.032L51.653 34H50.843L48.683 29.032V34H47.81V27.619H49.007L51.257 32.812L53.525 27.619H54.704V34ZM64.3456 34L63.6526 32.218H60.8266L60.1516 34H59.2066L61.7446 27.619H62.7616L65.2996 34H64.3456ZM62.2306 28.537L61.1416 31.399H63.3376L62.2306 28.537ZM73.6411 28.438H71.5081V34H70.6261V28.438H68.4931V27.619H73.6411V28.438ZM82.7431 28.438H80.6101V34H79.7281V28.438H77.5951V27.619H82.7431V28.438ZM92.2633 34H91.3813V31.165H88.1233V34H87.2413V27.619H88.1233V30.346H91.3813V27.619H92.2633V34ZM101.365 34H97.4858V27.619H101.365V28.438H98.3678V30.4H101.086V31.228H98.3678V33.181H101.365V34ZM112.12 32.668L113.497 27.619H114.406L112.588 34H111.679L110.014 28.825L108.367 34H107.485L105.64 27.619H106.549L107.953 32.614L109.555 27.619H110.482L112.12 32.668ZM128.652 33.523C128.226 33.931 127.677 34.135 127.005 34.135C126.333 34.135 125.781 33.931 125.349 33.523C124.923 33.115 124.71 32.548 124.71 31.822V27.619H125.583V31.795C125.583 32.281 125.706 32.656 125.952 32.92C126.204 33.184 126.555 33.316 127.005 33.316C127.455 33.316 127.803 33.184 128.049 32.92C128.295 32.656 128.418 32.281 128.418 31.795V27.619H129.3V31.822C129.3 32.548 129.084 33.115 128.652 33.523ZM137.193 34.135C136.323 34.135 135.576 33.835 134.952 33.235C134.334 32.635 134.025 31.825 134.025 30.805C134.025 30.121 134.181 29.521 134.493 29.005C134.805 28.489 135.198 28.108 135.672 27.862C136.146 27.61 136.653 27.484 137.193 27.484C137.913 27.484 138.519 27.667 139.011 28.033C139.509 28.393 139.839 28.885 140.001 29.509L139.182 29.797C139.062 29.317 138.831 28.948 138.489 28.69C138.147 28.426 137.715 28.294 137.193 28.294C136.569 28.294 136.035 28.516 135.591 28.96C135.147 29.398 134.925 30.013 134.925 30.805C134.925 31.597 135.147 32.215 135.591 32.659C136.035 33.103 136.569 33.325 137.193 33.325C137.715 33.325 138.15 33.187 138.498 32.911C138.846 32.629 139.089 32.257 139.227 31.795L140.01 32.083C139.836 32.701 139.5 33.199 139.002 33.577C138.51 33.949 137.907 34.135 137.193 34.135ZM149.802 34H148.92V31.165H145.662V34H144.78V27.619H145.662V30.346H148.92V27.619H149.802V34ZM158.903 34H155.024V27.619H158.903V28.438H155.906V30.4H158.624V31.228H155.906V33.181H158.903V34Z" fill="#E3D4D4"/>
<path d="M143.484 85L141.54 81.52H140.268V85H139.08V76.492H142.284C143.068 76.492 143.696 76.736 144.168 77.224C144.648 77.704 144.888 78.304 144.888 79.024C144.888 79.64 144.704 80.168 144.336 80.608C143.968 81.04 143.464 81.316 142.824 81.436L144.852 85H143.484ZM140.268 80.464H142.068C142.548 80.464 142.936 80.336 143.232 80.08C143.528 79.816 143.676 79.464 143.676 79.024C143.676 78.576 143.528 78.22 143.232 77.956C142.936 77.684 142.548 77.548 142.068 77.548H140.268V80.464ZM146.887 81.52H150.043C150.027 81.088 149.883 80.736 149.611 80.464C149.339 80.184 148.955 80.044 148.459 80.044C148.011 80.044 147.643 80.192 147.355 80.488C147.067 80.776 146.911 81.12 146.887 81.52ZM150.211 83.02L151.183 83.356C151.015 83.892 150.703 84.332 150.247 84.676C149.791 85.012 149.239 85.18 148.591 85.18C147.783 85.18 147.095 84.904 146.527 84.352C145.967 83.792 145.687 83.04 145.687 82.096C145.687 81.216 145.959 80.488 146.503 79.912C147.047 79.336 147.695 79.048 148.447 79.048C149.319 79.048 149.999 79.324 150.487 79.876C150.975 80.42 151.219 81.152 151.219 82.072C151.219 82.216 151.211 82.336 151.195 82.432H146.851C146.859 82.944 147.027 83.364 147.355 83.692C147.691 84.02 148.103 84.184 148.591 84.184C149.415 84.184 149.955 83.796 150.211 83.02ZM155.083 80.092C154.595 80.092 154.179 80.268 153.835 80.62C153.499 80.972 153.331 81.468 153.331 82.108C153.331 82.74 153.499 83.236 153.835 83.596C154.179 83.956 154.599 84.136 155.095 84.136C155.575 84.136 155.939 84.016 156.187 83.776C156.443 83.536 156.615 83.26 156.703 82.948L157.699 83.38C157.539 83.86 157.235 84.28 156.787 84.64C156.347 85 155.783 85.18 155.095 85.18C154.255 85.18 153.559 84.888 153.007 84.304C152.455 83.72 152.179 82.988 152.179 82.108C152.179 81.212 152.455 80.48 153.007 79.912C153.559 79.336 154.251 79.048 155.083 79.048C155.787 79.048 156.355 79.228 156.787 79.588C157.227 79.948 157.515 80.38 157.651 80.884L156.631 81.316C156.543 80.98 156.375 80.692 156.127 80.452C155.879 80.212 155.531 80.092 155.083 80.092ZM160.151 81.604V85H159.023V76.312H160.151V79.9C160.535 79.34 161.119 79.06 161.903 79.06C162.567 79.06 163.075 79.272 163.427 79.696C163.787 80.12 163.967 80.668 163.967 81.34V85H162.839V81.532C162.839 80.564 162.391 80.08 161.495 80.08C161.079 80.08 160.755 80.224 160.523 80.512C160.291 80.792 160.167 81.156 160.151 81.604ZM165.401 83.452C165.401 82.956 165.561 82.56 165.881 82.264C166.201 81.96 166.625 81.772 167.153 81.7L168.713 81.472C169.009 81.432 169.157 81.288 169.157 81.04C169.157 80.736 169.053 80.488 168.845 80.296C168.637 80.104 168.325 80.008 167.909 80.008C167.525 80.008 167.221 80.116 166.997 80.332C166.773 80.54 166.641 80.82 166.601 81.172L165.521 80.92C165.577 80.368 165.829 79.92 166.277 79.576C166.725 79.224 167.261 79.048 167.885 79.048C168.701 79.048 169.305 79.248 169.697 79.648C170.089 80.04 170.285 80.544 170.285 81.16V84.052C170.285 84.396 170.309 84.712 170.357 85H169.253C169.213 84.76 169.193 84.5 169.193 84.22C169.033 84.476 168.797 84.7 168.485 84.892C168.181 85.084 167.797 85.18 167.333 85.18C166.765 85.18 166.301 85.012 165.941 84.676C165.581 84.332 165.401 83.924 165.401 83.452ZM167.489 84.232C167.993 84.232 168.397 84.096 168.701 83.824C169.005 83.552 169.157 83.12 169.157 82.528V82.264L167.393 82.528C167.137 82.568 166.933 82.66 166.781 82.804C166.629 82.948 166.553 83.144 166.553 83.392C166.553 83.616 166.637 83.812 166.805 83.98C166.981 84.148 167.209 84.232 167.489 84.232ZM175.246 79.168V80.368C175.078 80.344 174.914 80.332 174.754 80.332C173.698 80.332 173.17 80.924 173.17 82.108V85H172.042V79.228H173.146V80.236C173.498 79.5 174.074 79.132 174.874 79.132C175.002 79.132 175.126 79.144 175.246 79.168ZM175.97 85.312L177.062 85.06C177.102 85.468 177.266 85.804 177.554 86.068C177.842 86.34 178.202 86.476 178.634 86.476C179.81 86.476 180.398 85.852 180.398 84.604V83.776C180.254 84.056 180.026 84.284 179.714 84.46C179.41 84.636 179.05 84.724 178.634 84.724C177.866 84.724 177.23 84.464 176.726 83.944C176.23 83.416 175.982 82.744 175.982 81.928C175.982 81.136 176.23 80.472 176.726 79.936C177.222 79.392 177.858 79.12 178.634 79.12C179.514 79.12 180.106 79.424 180.41 80.032V79.228H181.526V84.568C181.526 84.952 181.474 85.308 181.37 85.636C181.274 85.972 181.118 86.28 180.902 86.56C180.686 86.84 180.382 87.06 179.99 87.22C179.606 87.38 179.154 87.46 178.634 87.46C177.922 87.46 177.318 87.256 176.822 86.848C176.326 86.448 176.042 85.936 175.97 85.312ZM178.802 83.776C179.29 83.776 179.686 83.608 179.99 83.272C180.294 82.928 180.446 82.48 180.446 81.928C180.446 81.376 180.294 80.932 179.99 80.596C179.686 80.252 179.29 80.08 178.802 80.08C178.306 80.08 177.902 80.248 177.59 80.584C177.286 80.92 177.134 81.368 177.134 81.928C177.134 82.496 177.282 82.948 177.578 83.284C177.882 83.612 178.29 83.776 178.802 83.776ZM184.059 81.52H187.215C187.199 81.088 187.055 80.736 186.783 80.464C186.511 80.184 186.127 80.044 185.631 80.044C185.183 80.044 184.815 80.192 184.527 80.488C184.239 80.776 184.083 81.12 184.059 81.52ZM187.383 83.02L188.355 83.356C188.187 83.892 187.875 84.332 187.419 84.676C186.963 85.012 186.411 85.18 185.763 85.18C184.955 85.18 184.267 84.904 183.699 84.352C183.139 83.792 182.859 83.04 182.859 82.096C182.859 81.216 183.131 80.488 183.675 79.912C184.219 79.336 184.867 79.048 185.619 79.048C186.491 79.048 187.171 79.324 187.659 79.876C188.147 80.42 188.391 81.152 188.391 82.072C188.391 82.216 188.383 82.336 188.367 82.432H184.023C184.031 82.944 184.199 83.364 184.527 83.692C184.863 84.02 185.275 84.184 185.763 84.184C186.587 84.184 187.127 83.796 187.383 83.02ZM196.635 85.18C195.475 85.18 194.479 84.78 193.647 83.98C192.823 83.18 192.411 82.1 192.411 80.74C192.411 79.828 192.619 79.028 193.035 78.34C193.451 77.652 193.975 77.144 194.607 76.816C195.239 76.48 195.915 76.312 196.635 76.312C197.595 76.312 198.403 76.556 199.059 77.044C199.723 77.524 200.163 78.18 200.379 79.012L199.287 79.396C199.127 78.756 198.819 78.264 198.363 77.92C197.907 77.568 197.331 77.392 196.635 77.392C195.803 77.392 195.091 77.688 194.499 78.28C193.907 78.864 193.611 79.684 193.611 80.74C193.611 81.796 193.907 82.62 194.499 83.212C195.091 83.804 195.803 84.1 196.635 84.1C197.331 84.1 197.911 83.916 198.375 83.548C198.839 83.172 199.163 82.676 199.347 82.06L200.391 82.444C200.159 83.268 199.711 83.932 199.047 84.436C198.391 84.932 197.587 85.18 196.635 85.18ZM201.237 83.452C201.237 82.956 201.397 82.56 201.717 82.264C202.037 81.96 202.461 81.772 202.989 81.7L204.549 81.472C204.845 81.432 204.993 81.288 204.993 81.04C204.993 80.736 204.889 80.488 204.681 80.296C204.473 80.104 204.161 80.008 203.745 80.008C203.361 80.008 203.057 80.116 202.833 80.332C202.609 80.54 202.477 80.82 202.437 81.172L201.357 80.92C201.413 80.368 201.665 79.92 202.113 79.576C202.561 79.224 203.097 79.048 203.721 79.048C204.537 79.048 205.141 79.248 205.533 79.648C205.925 80.04 206.121 80.544 206.121 81.16V84.052C206.121 84.396 206.145 84.712 206.193 85H205.089C205.049 84.76 205.029 84.5 205.029 84.22C204.869 84.476 204.633 84.7 204.321 84.892C204.017 85.084 203.633 85.18 203.169 85.18C202.601 85.18 202.137 85.012 201.777 84.676C201.417 84.332 201.237 83.924 201.237 83.452ZM203.325 84.232C203.829 84.232 204.233 84.096 204.537 83.824C204.841 83.552 204.993 83.12 204.993 82.528V82.264L203.229 82.528C202.973 82.568 202.769 82.66 202.617 82.804C202.465 82.948 202.389 83.144 202.389 83.392C202.389 83.616 202.473 83.812 202.641 83.98C202.817 84.148 203.045 84.232 203.325 84.232ZM211.082 79.168V80.368C210.914 80.344 210.75 80.332 210.59 80.332C209.534 80.332 209.006 80.924 209.006 82.108V85H207.878V79.228H208.982V80.236C209.334 79.5 209.91 79.132 210.71 79.132C210.838 79.132 210.962 79.144 211.082 79.168ZM212.898 82.096C212.898 82.704 213.046 83.2 213.342 83.584C213.646 83.968 214.062 84.16 214.59 84.16C215.094 84.16 215.498 83.964 215.802 83.572C216.106 83.18 216.258 82.68 216.258 82.072C216.258 81.472 216.11 80.988 215.814 80.62C215.518 80.252 215.114 80.068 214.602 80.068C214.09 80.068 213.678 80.256 213.366 80.632C213.054 81.008 212.898 81.496 212.898 82.096ZM216.27 84.22V84.124C216.118 84.42 215.886 84.668 215.574 84.868C215.27 85.06 214.906 85.156 214.482 85.156C213.658 85.156 212.994 84.868 212.49 84.292C211.994 83.708 211.746 82.976 211.746 82.096C211.746 81.256 212.002 80.544 212.514 79.96C213.026 79.368 213.682 79.072 214.482 79.072C214.954 79.072 215.338 79.168 215.634 79.36C215.93 79.544 216.134 79.772 216.246 80.044V76.312H217.362V83.932C217.362 84.324 217.382 84.68 217.422 85H216.33C216.29 84.776 216.27 84.516 216.27 84.22Z" fill="white"/>
<defs>
<filter id="filter0_b" x="90" y="235" width="307" height="106" filterUnits="userSpaceOnUse" color-interpolation-filters="sRGB">
<feFlood flood-opacity="0" result="BackgroundImageFix"/>
<feGaussianBlur in="BackgroundImage" stdDeviation="10"/>
<feComposite in2="SourceAlpha" operator="in" result="effect1_backgroundBlur"/>
<feBlend mode="normal" in="SourceGraphic" in2="effect1_backgroundBlur" result="shape"/>
</filter>
<filter id="filter1_b" x="-20" y="55" width="201" height="211" filterUnits="userSpaceOnUse" color-interpolation-filters="sRGB">
<feFlood flood-opacity="0" result="BackgroundImageFix"/>
<feGaussianBlur in="BackgroundImage" stdDeviation="10"/>
<feComposite in2="SourceAlpha" operator="in" result="effect1_backgroundBlur"/>
<feBlend mode="normal" in="SourceGraphic" in2="effect1_backgroundBlur" result="shape"/>
</filter>
<linearGradient id="paint0_linear" x1="103" y1="178" x2="382" y2="334" gradientUnits="userSpaceOnUse">
<stop stop-color="#D410D8"/>
<stop offset="1" stop-color="#C2C607"/>
</linearGradient>
<linearGradient id="paint1_linear" x1="31" y1="5" x2="310" y2="161" gradientUnits="userSpaceOnUse">
<stop/>
<stop offset="1" stop-color="#393939" stop-opacity="0.77"/>
</linearGradient>
</defs>
</svg>
