<svg width="342" height="336" viewBox="0 0 342 336" fill="none" xmlns="http://www.w3.org/2000/svg">
<circle cx="161" cy="161" r="161" fill="#F1C005"/>
<circle cx="181" cy="175" r="161" fill="#FFCB05" fill-opacity="0.2"/>
<path d="M203.132 72H119.868C111.661 72.0097 105.01 78.6611 105 86.8684V235.553C105.01 243.76 111.661 250.411 119.868 250.421H203.132C211.339 250.411 217.99 243.76 218 235.553V86.8684C217.99 78.6611 211.339 72.0097 203.132 72ZM212.053 235.553C212.053 240.48 208.059 244.474 203.132 244.474H119.868C114.941 244.474 110.947 240.48 110.947 235.553V232.579H212.053V235.553ZM212.053 226.632H110.947V95.7895H212.053V226.632ZM212.053 89.8421H110.947V86.8684C110.947 81.9414 114.941 77.9474 119.868 77.9474H203.132C208.059 77.9474 212.053 81.9414 212.053 86.8684V89.8421Z" fill="#7E41E0"/>
<path d="M163.921 158H157.974C156.331 158 155 159.331 155 160.974C155 162.616 156.331 163.947 157.974 163.947H163.921C165.563 163.947 166.895 162.616 166.895 160.974C166.895 159.331 165.563 158 163.921 158Z" fill="#7E41E0"/>
<path d="M166.868 158H154.974C153.331 158 152 159.331 152 160.974C152 162.616 153.331 163.947 154.974 163.947H166.868C168.511 163.947 169.842 162.616 169.842 160.974C169.842 159.331 168.511 158 166.868 158Z" fill="#7E41E0"/>
<path d="M169.816 158H151.974C150.331 158 149 159.331 149 160.974C149 162.616 150.331 163.947 151.974 163.947H169.816C171.458 163.947 172.789 162.616 172.789 160.974C172.789 159.331 171.458 158 169.816 158Z" fill="#7E41E0"/>
</svg>
