<svg width="339" height="335" viewBox="0 0 339 335" fill="none" xmlns="http://www.w3.org/2000/svg">
<circle cx="178" cy="174" r="161" fill="#FFCB05" fill-opacity="0.2"/>
<circle cx="161" cy="161" r="161" fill="#F7C405"/>
<path d="M208.815 150.805V107.665H214.27C216.499 107.674 218.522 106.363 219.424 104.325C220.381 102.279 220.04 99.8618 218.556 98.1602L201.94 79.0255C200.851 77.8304 199.309 77.1481 197.692 77.1455C196.075 77.1429 194.531 77.82 193.437 79.0118L176.808 98.1602C175.324 99.8624 174.983 102.279 175.939 104.325C176.841 106.364 178.865 107.675 181.094 107.665H186.549V150.805C163.259 156.443 147.861 178.603 150.7 202.397C153.539 226.192 173.719 244.106 197.682 244.106C221.645 244.106 241.824 226.191 244.663 202.397C247.503 178.603 232.105 156.443 208.815 150.805V150.805ZM189.332 102.098H181.052L181.024 101.82L197.724 82.6687L214.339 101.82L214.27 102.098H206.031C204.494 102.098 203.248 103.345 203.248 104.881V149.769C199.553 149.294 195.811 149.294 192.116 149.769V104.881C192.115 103.345 190.869 102.098 189.332 102.098V102.098ZM197.682 238.476C174.625 238.476 155.933 219.785 155.933 196.728C155.933 173.671 174.625 154.98 197.682 154.98C220.739 154.98 239.43 173.671 239.43 196.728C239.404 219.774 220.728 238.45 197.682 238.476Z" fill="#7E41E0"/>
<path d="M114.185 170.301V213.427H108.73C106.501 213.417 104.477 214.728 103.575 216.767C102.619 218.812 102.96 221.23 104.444 222.932L121.059 242.066C122.115 243.319 123.669 244.044 125.308 244.046C126.946 244.049 128.503 243.33 129.562 242.08L146.181 222.932C147.672 221.23 148.017 218.809 147.061 216.758C146.157 214.723 144.134 213.415 141.906 213.427H136.451V170.301C159.741 164.663 175.139 142.503 172.3 118.709C169.46 94.9149 149.281 77 125.318 77C101.355 77 81.1758 94.9149 78.3366 118.709C75.4973 142.503 90.8953 164.663 114.185 170.301V170.301ZM133.668 218.994H141.948L141.976 219.272L125.276 238.423L108.661 219.272L108.73 218.994H116.968C118.506 218.994 119.752 217.747 119.752 216.21V171.322C121.599 171.55 123.457 171.669 125.318 171.679C127.179 171.669 129.038 171.549 130.885 171.322V216.21C130.885 217.748 132.131 218.994 133.668 218.994V218.994ZM125.318 82.6158C148.375 82.6158 167.066 101.307 167.066 124.364C167.066 147.421 148.375 166.112 125.318 166.112C102.261 166.112 83.5698 147.421 83.5698 124.364C83.5959 101.318 102.272 82.6419 125.318 82.6158V82.6158Z" fill="#7E41E0"/>
<path d="M114.185 135.497C114.185 133.96 112.939 132.714 111.402 132.714C109.865 132.714 108.619 133.96 108.619 135.497C108.619 142.377 114.65 148.094 122.535 149.204V154.98C122.535 156.517 123.781 157.763 125.318 157.763C126.855 157.763 128.101 156.517 128.101 154.98V149.204C135.986 148.091 142.018 142.377 142.018 135.497C142.018 128.617 135.986 122.9 128.101 121.789V105.179C132.888 106.112 136.451 109.354 136.451 113.231C136.451 114.769 137.697 116.014 139.234 116.014C140.771 116.014 142.017 114.768 142.017 113.231C142.017 106.351 135.986 100.634 128.101 99.5239V93.7486C128.101 92.2114 126.855 90.9655 125.318 90.9655C123.781 90.9655 122.535 92.2117 122.535 93.7486V99.5239C114.65 100.637 108.619 106.351 108.619 113.231C108.619 120.112 114.65 125.828 122.535 126.939V143.549C117.748 142.616 114.185 139.377 114.185 135.497V135.497ZM136.451 135.497C136.451 139.377 132.888 142.616 128.101 143.549V127.445C132.888 128.378 136.451 131.617 136.451 135.497V135.497ZM114.185 113.231C114.185 109.351 117.748 106.112 122.535 105.179V121.283C117.748 120.351 114.185 117.111 114.185 113.231V113.231Z" fill="#7E41E0"/>
<path d="M197.682 177.245C202.906 177.34 207.743 180.019 210.593 184.398C211.145 185.251 212.118 185.735 213.131 185.662C214.145 185.589 215.037 184.969 215.461 184.045C215.884 183.121 215.77 182.04 215.163 181.225C211.285 175.336 204.733 171.758 197.682 171.679C187.794 172.064 179.303 178.827 176.716 188.378H169.85C168.312 188.378 167.066 189.624 167.066 191.161C167.066 192.699 168.312 193.945 169.85 193.945H175.561C175.472 194.86 175.416 195.787 175.416 196.728C175.416 197.668 175.472 198.595 175.561 199.511H169.85C168.312 199.511 167.066 200.757 167.066 202.294C167.066 203.831 168.312 205.077 169.85 205.077H176.716C179.303 214.628 187.794 221.391 197.682 221.776C204.733 221.697 211.285 218.119 215.163 212.23C215.77 211.415 215.884 210.334 215.461 209.41C215.037 208.487 214.145 207.867 213.131 207.793C212.118 207.719 211.145 208.204 210.593 209.057C207.743 213.436 202.906 216.115 197.682 216.21C190.859 215.92 184.897 211.514 182.616 205.077H197.682C199.219 205.077 200.465 203.831 200.465 202.294C200.465 200.757 199.219 199.511 197.682 199.511H181.172C180.919 197.664 180.919 195.792 181.172 193.945H197.682C199.219 193.945 200.465 192.699 200.465 191.161C200.465 189.624 199.219 188.378 197.682 188.378H182.616C184.897 181.941 190.859 177.535 197.682 177.245V177.245Z" fill="#7E41E0"/>
</svg>
